<?xml version="1.0" encoding="utf-8"?>
<!-- Generator: Adobe Illustrator 21.0.2, SVG Export Plug-In . SVG Version: 6.00 Build 0)  -->
<svg version="1.1" id="Calque_1" xmlns="http://www.w3.org/2000/svg" xmlns:xlink="http://www.w3.org/1999/xlink" x="0px" y="0px"
	 viewBox="0 0 20 16" style="enable-background:new 0 0 20 16;" xml:space="preserve">
<style type="text/css">
	.st0{fill:#FFFFFF;}
</style>
<g>
	<path class="st0" d="M19,14c0.6,0,1,0.4,1,1c0,0.5-0.4,0.9-0.9,1L19,16H1c-0.6,0-1-0.4-1-1c0-0.5,0.4-0.9,0.9-1L1,14H19z M19,7
		c0.6,0,1,0.4,1,1c0,0.5-0.4,0.9-0.9,1L19,9H1C0.4,9,0,8.6,0,8c0-0.5,0.4-0.9,0.9-1L1,7H19z M19,0c0.6,0,1,0.4,1,1
		c0,0.5-0.4,0.9-0.9,1L19,2H1C0.4,2,0,1.6,0,1c0-0.5,0.4-0.9,0.9-1L1,0H19z"/>
</g>
</svg>
