<svg width="683" height="100" viewBox="0 0 683 100" fill="none" xmlns="http://www.w3.org/2000/svg">
<path d="M338.819 12.2427V92.4627L330.076 99.5053V32.772H313.619L338.819 12.2427V12.2427ZM642.049 0C649.372 0 656.169 1.104 662.445 3.312C668.483 5.39733 673.689 7.74267 678.068 10.3453L678.832 10.808L669.767 28.0653C668.94 27.3893 667.772 26.6147 666.264 25.744L665.407 25.2587L664.483 24.7547L663.492 24.2307C660.703 22.72 657.391 21.4413 653.555 20.396C649.711 19.2324 645.717 18.6447 641.701 18.652C630.777 18.652 625.315 21.732 625.315 27.892C625.315 31.4933 627.291 34.0507 631.241 35.5613L632.143 35.888L633.099 36.22L634.112 36.5573L635.184 36.8987L636.312 37.2467L637.496 37.6C637.699 37.66 637.903 37.72 638.109 37.7787L639.38 38.1387L640.707 38.5067L642.091 38.8773L643.531 39.2547L645.029 39.6373L647.383 40.2213L649.023 40.6173C655.879 42.36 661.807 44.336 666.804 46.544C671.704 48.66 675.484 51.4693 678.143 54.9733L678.483 55.4347C681.272 59.0373 682.667 63.8013 682.667 69.728C682.667 76.9333 680.807 82.744 677.088 87.1613C673.485 91.46 668.721 94.5987 662.795 96.5747C656.867 98.4333 650.475 99.3627 643.619 99.3627C635.716 99.3627 627.872 98.2587 620.085 96.0507C612.669 93.948 606.045 91.108 600.211 87.5293L599.341 86.9867L608.755 68.6827C610.265 70.1933 612.764 71.8787 616.251 73.7373C619.853 75.5973 624.037 77.1667 628.801 78.444C633.567 79.724 638.621 80.3627 643.968 80.3627C654.659 80.3627 660.005 77.5147 660.005 71.82C660.005 67.9853 657.507 65.2547 652.509 63.628L651.308 63.2053L650.045 62.7773L648.724 62.3427L647.341 61.9L645.899 61.452L644.396 60.996L643.623 60.7667L642.029 60.3013L640.376 59.8293L638.661 59.3507L636.888 58.8653L634.115 58.1253L633.16 57.8747C623.165 55.3187 615.728 52.064 610.847 48.1133C606.081 44.0453 603.7 38.2333 603.7 30.68C603.7 23.94 605.384 18.304 608.753 13.772C612.241 9.23867 616.889 5.81067 622.7 3.48667C628.627 1.16267 635.077 0 642.049 0ZM480.389 0.173333C487.764 0.173333 494.497 1.51733 500.584 4.204L501.311 4.532C507.587 7.32133 512.932 11.0987 517.348 15.8627C521.881 20.512 525.364 25.8 527.804 31.7267C530.244 37.6533 531.468 43.696 531.468 49.856C531.468 56.248 530.191 62.4067 527.633 68.3347C525.077 74.1453 521.471 79.3747 516.821 84.0227C512.289 88.556 506.889 92.1573 500.613 94.8307C494.339 97.504 487.481 98.84 480.044 98.84C472.373 98.84 465.401 97.504 459.125 94.8307C452.849 92.0413 447.443 88.324 442.909 83.6747C438.377 78.9093 434.891 73.564 432.451 67.6373C430.013 61.7093 428.789 55.608 428.789 49.3333C428.789 42.9413 430.069 36.7813 432.625 30.8547C435.041 25.2358 438.496 20.1239 442.809 15.788L443.436 15.1653C448.085 10.5173 453.543 6.856 459.819 4.184C466.095 1.51067 472.952 0.174667 480.389 0.174667V0.173333ZM59.792 0.698667L102.152 98.144H79.84L70.0773 75.3067H32.2493L22.488 98.1427H0L42.5333 0.697333H59.792V0.698667ZM184.565 0.698667L211.413 35.2133L238.257 0.697333H261.093L222.568 50.0307L259.873 98.1427H237.037L211.411 65.0227L185.961 98.1427H162.776L200.256 50.0307L161.556 0.697333H184.567L184.565 0.698667ZM354.808 0.250667V65.4573H371.727L346.08 86.5027V6.32533L354.805 0.250667H354.808ZM480.045 19.0013C473.653 19.0013 468.188 20.512 463.656 23.5333C459.239 26.5547 455.869 30.3893 453.545 35.0387C451.22 39.6867 450.059 44.5107 450.059 49.508C450.059 54.7373 451.283 59.7347 453.723 64.4987C456.16 69.148 459.588 72.9253 464.004 75.8293C468.537 78.736 473.94 80.188 480.216 80.188C486.608 80.188 492.012 78.6773 496.428 75.6547C500.848 72.5173 504.215 68.624 506.539 63.9747C508.863 59.2107 510.028 54.3307 510.028 49.3333C510.028 44.104 508.808 39.164 506.368 34.516C503.928 29.8667 500.441 26.148 495.905 23.3587C491.488 20.4533 486.204 19.0013 480.045 19.0013V19.0013ZM51.2507 26.32L36.956 57.004H65.0227L51.2493 26.324L51.2507 26.32Z" fill="#5A29E4"/>
</svg>
