<svg width="171" height="200" viewBox="0 0 171 200" fill="none" xmlns="http://www.w3.org/2000/svg">
<g clip-path="url(#clip0_30_41)">
<path d="M85.3559 199.495L15.8039 183.471L0.304169 39.2056H170.616L155.1 183.449L85.3559 199.495V199.495Z" fill="#264DE4"/>
<path d="M141.817 174.264L155.075 51.0012H85.46V187.23L141.817 174.264V174.264Z" fill="#2965F1"/>
<path d="M35.8366 104.508L37.7473 122.201H85.4601V104.508H35.8366Z" fill="#EBEBEB"/>
<path d="M31.9966 68.6953L33.9346 86.3889H85.46V68.6953H31.9966V68.6953Z" fill="#EBEBEB"/>
<path d="M85.4599 150.46L85.3665 150.48L61.6212 145.159L60.1031 131.048H38.6998L41.6867 158.83L85.3618 168.891L85.4599 168.869V150.46Z" fill="#EBEBEB"/>
<path d="M40.3862 0H66.209V8.96177H51.1853V17.9235H66.2103V26.8848H40.3862V0Z" fill="#F1F1F1"/>
<path d="M71.3743 0H97.1977V7.7928H82.1734V9.35125H97.1977V27.2748H71.3749V19.0914H86.3993V17.533H71.3736V0H71.3743Z" fill="#F1F1F1"/>
<path d="M102.363 0H128.187V7.7928H113.162V9.35125H128.187V27.2748H102.363V19.0914H117.387V17.533H102.364V0H102.363Z" fill="#F1F1F1"/>
<path d="M134.947 104.508L138.796 68.6953H85.3865V86.3889H115.43L113.49 104.508H85.3865V122.201H111.641L109.166 145.149L85.3858 150.475V168.883L129.096 158.83L129.416 155.84L134.427 109.259L134.947 104.508V104.508Z" fill="white"/>
</g>
<defs>
<clipPath id="clip0_30_41">
<rect width="170.92" height="200" fill="white"/>
</clipPath>
</defs>
</svg>
