<svg width="264" height="200" viewBox="0 0 264 200" fill="none" xmlns="http://www.w3.org/2000/svg">
<g clip-path="url(#clip0_30_18)">
<path d="M130.045 199.423C129.155 199.423 128.323 199.129 127.551 198.613L119.654 192.798C118.466 191.988 119.06 191.694 119.417 191.546C121.02 190.884 121.317 190.736 122.979 189.559C123.157 189.411 123.395 189.485 123.573 189.632L129.63 194.123C129.867 194.27 130.164 194.27 130.342 194.123L154.035 177.118C154.272 176.971 154.392 176.676 154.392 176.308V142.372C154.392 142.003 154.272 141.709 154.035 141.562L130.342 124.63C130.105 124.483 129.808 124.483 129.63 124.63L105.937 141.562C105.7 141.709 105.58 142.077 105.58 142.371V176.308C105.58 176.602 105.7 176.97 105.937 177.118L112.41 181.755C115.913 183.964 118.11 181.387 118.11 178.811V145.316C118.11 144.874 118.407 144.432 118.823 144.432H121.851C122.207 144.432 122.563 144.801 122.563 145.316V178.811C122.563 184.626 120.01 188.013 115.557 188.013C114.191 188.013 113.122 188.013 110.093 186.172L103.859 181.755C102.315 180.651 101.365 178.59 101.365 176.381V142.445C101.365 140.237 102.315 138.175 103.859 137.071L127.551 120.066C129.036 119.036 131.055 119.036 132.54 120.066L156.232 137.071C157.776 138.175 158.726 140.237 158.726 142.445V176.381C158.726 178.59 157.776 180.651 156.232 181.755L132.54 198.76C131.767 199.202 130.877 199.423 130.046 199.423H130.045ZM137.349 176.087C126.958 176.087 124.82 170.198 124.82 165.192C124.82 164.75 125.117 164.309 125.533 164.309H128.62C128.976 164.309 129.273 164.603 129.273 165.045C129.749 168.946 131.114 170.86 137.409 170.86C142.396 170.86 144.535 169.462 144.535 166.149C144.535 164.235 143.94 162.837 136.162 161.88C129.689 161.069 125.651 159.303 125.651 152.899C125.651 146.936 129.69 143.402 136.459 143.402C144.059 143.402 147.8 146.641 148.276 153.708C148.276 153.929 148.216 154.15 148.097 154.371C147.978 154.518 147.8 154.665 147.622 154.665H144.534C144.237 154.665 143.94 154.371 143.881 154.002C143.169 149.954 141.328 148.629 136.459 148.629C130.996 148.629 130.342 150.985 130.342 152.751C130.342 154.886 131.114 155.548 138.477 156.726C145.781 157.904 149.226 159.597 149.226 165.928C149.166 172.406 144.891 176.087 137.349 176.087Z" fill="#539E43"/>
<path d="M56.5324 66.6955C56.5324 65.3706 55.9385 64.1184 54.9885 63.456L29.8112 45.4942C29.395 45.1993 28.9203 45.0522 28.4456 44.9783H28.2077C27.733 44.9783 27.2577 45.1993 26.8421 45.4942L1.66476 63.456C0.714266 64.1184 0.12085 65.37 0.12085 66.6955L0.180448 114.987C0.180448 115.649 0.477413 116.311 0.952147 116.606C1.42739 116.974 2.02081 116.974 2.43697 116.606L17.4008 106.006C18.3508 105.343 18.9447 104.092 18.9447 102.767V80.1668C18.9447 78.842 19.5382 77.5904 20.4887 76.928L26.8421 72.3636C27.3173 71.9955 27.8516 71.8477 28.386 71.8477C28.9203 71.8477 29.4546 71.9955 29.8708 72.3636L36.2242 76.928C37.1747 77.5904 37.7681 78.8413 37.7681 80.1668V102.767C37.7681 104.092 38.3621 105.343 39.312 106.006L54.2759 116.606C54.7511 116.974 55.3446 116.974 55.8198 116.606C56.2951 116.311 56.592 115.649 56.592 114.987L56.5324 66.6955Z" fill="#333333"/>
<path d="M177.55 0.221056C177.075 -0.0738482 176.481 -0.0738482 176.065 0.221056C175.59 0.589209 175.293 1.17774 175.293 1.84016V49.6905C175.293 50.1319 175.116 50.5733 174.759 50.8682C174.403 51.0886 174.046 51.0886 173.69 50.8682L167.396 46.3777C166.935 46.052 166.413 45.8807 165.882 45.8807C165.351 45.8807 164.829 46.052 164.367 46.3777L139.19 64.4134C138.24 65.0758 137.646 66.3274 137.646 67.6523V103.65C137.646 104.975 138.24 106.227 139.19 106.889L164.367 124.925C164.829 125.251 165.351 125.422 165.882 125.422C166.413 125.422 166.935 125.251 167.396 124.925L192.573 106.889C193.523 106.227 194.117 104.975 194.117 103.65V13.9134C194.117 12.5147 193.523 11.2637 192.573 10.6007L177.55 0.221056H177.55ZM175.234 91.7981C175.234 92.1663 175.116 92.4605 174.878 92.6077L166.268 98.7911C166.147 98.8639 166.015 98.9016 165.882 98.9016C165.748 98.9016 165.616 98.8639 165.495 98.7911L156.886 92.6077C156.648 92.4605 156.529 92.0924 156.529 91.7981V79.4306C156.529 79.0625 156.648 78.7682 156.886 78.6211L165.495 72.437C165.616 72.3643 165.748 72.3265 165.882 72.3265C166.015 72.3265 166.147 72.3643 166.268 72.437L174.878 78.6211C175.116 78.7676 175.234 79.1363 175.234 79.4306V91.7981Z" fill="#333333"/>
<path d="M261.336 79.1363C262.286 78.4739 262.82 77.2223 262.82 75.8968V67.1369C262.82 65.8121 262.227 64.5605 261.336 63.8981L236.337 45.9363C235.875 45.6107 235.353 45.4395 234.822 45.4395C234.292 45.4395 233.77 45.6107 233.308 45.9363L208.131 63.9713C207.181 64.6337 206.587 65.8853 206.587 67.2108V103.208C206.587 104.533 207.181 105.785 208.131 106.447L233.13 124.115C234.081 124.777 235.208 124.777 236.099 124.115L251.241 113.662C251.716 113.367 252.013 112.705 252.013 112.043C252.013 111.38 251.716 110.718 251.241 110.423L225.945 92.3872C225.47 92.0197 225.173 91.4305 225.173 90.7681V79.5051C225.173 78.8427 225.47 78.1802 225.945 77.8853L233.843 72.2904C234.074 72.1101 234.341 72.0144 234.615 72.0144C234.888 72.0144 235.155 72.1101 235.387 72.2904L243.284 77.8853C243.759 78.2535 244.056 78.842 244.056 79.5051V88.3388C244.056 89.0013 244.353 89.6637 244.828 89.9579C245.303 90.3261 245.897 90.3261 246.372 89.9579L261.336 79.1363V79.1363Z" fill="#333333"/>
<path d="M234.437 77.4432C234.525 77.3713 234.628 77.333 234.733 77.333C234.839 77.333 234.942 77.3713 235.03 77.4432L239.84 80.9031C240.018 81.0496 240.137 81.2706 240.137 81.5655V88.4853C240.137 88.7796 240.018 89.0006 239.84 89.1477L235.03 92.6076C234.942 92.6795 234.839 92.7178 234.733 92.7178C234.628 92.7178 234.525 92.6795 234.437 92.6076L229.627 89.1477C229.448 89.0006 229.33 88.7796 229.33 88.4853V81.5655C229.33 81.2706 229.448 81.0496 229.627 80.9031L234.437 77.4432V77.4432Z" fill="#539E43"/>
<mask id="mask0_30_18" style="mask-type:alpha" maskUnits="userSpaceOnUse" x="69" y="45" width="57" height="80">
<path d="M98.6332 46.0833C98.1718 45.7576 97.65 45.5864 97.1191 45.5864C96.5881 45.5864 96.0663 45.7576 95.6049 46.0833L70.6059 63.9705C69.6554 64.6329 69.1211 65.8845 69.1211 67.2094V103.06C69.1211 104.385 69.715 105.637 70.6059 106.299L95.6049 124.188C96.0663 124.513 96.5881 124.685 97.1191 124.685C97.65 124.685 98.1718 124.513 98.6332 124.188L123.633 106.299C124.583 105.637 125.118 104.385 125.118 103.06V67.21C125.118 65.8852 124.523 64.6336 123.633 63.9712L98.6332 46.0833Z" fill="white"/>
</mask>
<g mask="url(#mask0_30_18)">
<path d="M98.6332 46.0833C98.1718 45.7576 97.65 45.5864 97.1191 45.5864C96.5881 45.5864 96.0663 45.7576 95.6049 46.0833L70.6059 63.9705C69.6554 64.6329 69.1211 65.8845 69.1211 67.2094V103.06C69.1211 104.385 69.715 105.637 70.6059 106.299L95.6049 124.188C96.0663 124.513 96.5881 124.685 97.1191 124.685C97.65 124.685 98.1718 124.513 98.6332 124.188L123.633 106.299C124.583 105.637 125.118 104.385 125.118 103.06V67.21C125.118 65.8852 124.523 64.6336 123.633 63.9712L98.6332 46.0833Z" fill="url(#paint0_linear_30_18)"/>
<path d="M123.692 63.9711L98.5741 46.0832C98.3273 45.9287 98.0686 45.8054 97.8018 45.7151L69.6554 105.491C69.8885 105.844 70.1701 106.143 70.4872 106.374L95.6049 124.263C96.3175 124.778 97.1488 124.925 97.9205 124.63L124.345 64.7081C124.167 64.4138 123.929 64.1922 123.692 63.9718V63.9711Z" fill="url(#paint1_linear_30_18)"/>
<path fill-rule="evenodd" clip-rule="evenodd" d="M123.751 106.3C124.464 105.785 124.998 104.901 125.236 103.944L97.6826 45.6412C96.97 45.4941 96.1978 45.5673 95.5453 46.0826L70.6053 63.8979L97.5043 124.704C97.8955 124.624 98.2755 124.476 98.6326 124.262L123.751 106.3L123.751 106.3Z" fill="url(#paint2_linear_30_18)"/>
<path fill-rule="evenodd" clip-rule="evenodd" d="M123.751 106.3L98.6927 124.188C98.339 124.412 97.9577 124.561 97.5645 124.63L98.0397 125.734L125.83 105.785V105.343L125.117 103.871C124.998 104.901 124.464 105.785 123.751 106.3V106.3Z" fill="url(#paint3_linear_30_18)"/>
<path fill-rule="evenodd" clip-rule="evenodd" d="M123.751 106.3L98.6927 124.188C98.339 124.412 97.9577 124.561 97.5645 124.63L98.0397 125.734L125.83 105.785V105.343L125.117 103.871C124.998 104.901 124.464 105.785 123.751 106.3V106.3Z" fill="url(#paint4_linear_30_18)"/>
</g>
</g>
<defs>
<linearGradient id="paint0_linear_30_18" x1="107.304" y1="59.4183" x2="70.8352" y2="105.641" gradientUnits="userSpaceOnUse">
<stop stop-color="#41873F"/>
<stop offset="0.3288" stop-color="#418B3D"/>
<stop offset="0.6352" stop-color="#419637"/>
<stop offset="0.9319" stop-color="#3FA92D"/>
<stop offset="1" stop-color="#3FAE2A"/>
</linearGradient>
<linearGradient id="paint1_linear_30_18" x1="93.3235" y1="89.3349" x2="167.885" y2="56.6583" gradientUnits="userSpaceOnUse">
<stop offset="0.1376" stop-color="#41873F"/>
<stop offset="0.4032" stop-color="#54A044"/>
<stop offset="0.7136" stop-color="#66B848"/>
<stop offset="0.9081" stop-color="#6CC04A"/>
</linearGradient>
<linearGradient id="paint2_linear_30_18" x1="68.2076" y1="85.1366" x2="126.055" y2="85.1366" gradientUnits="userSpaceOnUse">
<stop offset="0.09192" stop-color="#6CC04A"/>
<stop offset="0.2864" stop-color="#66B848"/>
<stop offset="0.5968" stop-color="#54A044"/>
<stop offset="0.8624" stop-color="#41873F"/>
</linearGradient>
<linearGradient id="paint3_linear_30_18" x1="68.208" y1="114.863" x2="126.055" y2="114.863" gradientUnits="userSpaceOnUse">
<stop offset="0.09192" stop-color="#6CC04A"/>
<stop offset="0.2864" stop-color="#66B848"/>
<stop offset="0.5968" stop-color="#54A044"/>
<stop offset="0.8624" stop-color="#41873F"/>
</linearGradient>
<linearGradient id="paint4_linear_30_18" x1="134.482" y1="57.7231" x2="112.376" y2="151.159" gradientUnits="userSpaceOnUse">
<stop stop-color="#41873F"/>
<stop offset="0.3288" stop-color="#418B3D"/>
<stop offset="0.6352" stop-color="#419637"/>
<stop offset="0.9319" stop-color="#3FA92D"/>
<stop offset="1" stop-color="#3FAE2A"/>
</linearGradient>
<clipPath id="clip0_30_18">
<rect width="263.06" height="200" fill="white"/>
</clipPath>
</defs>
</svg>
