<svg width="171" height="200" viewBox="0 0 171 200" fill="none" xmlns="http://www.w3.org/2000/svg">
<g clip-path="url(#clip0_30_3)">
<path d="M170.616 39.2056L155.1 183.449L85.3558 199.495L15.8038 183.471L0.304138 39.2056H170.616Z" fill="#E44D26"/>
<path d="M85.46 187.23L141.817 174.264L155.075 51.0011H85.46V187.23Z" fill="#F16529"/>
<path d="M55.2978 86.3889H85.46V68.6953H31.9965L32.5066 73.4421L37.7472 122.201H85.46V104.508H57.2465L55.2978 86.3889V86.3889Z" fill="#EBEBEB"/>
<path d="M60.1032 131.048H38.6999L41.6867 158.83L85.3618 168.891L85.46 168.869V150.46L85.3665 150.48L61.6213 145.16L60.1032 131.048V131.048Z" fill="#EBEBEB"/>
<path d="M16.1497 0H26.9848V8.88366H36.8967V0H47.7325V26.9019H36.8974V17.8936H26.9855V26.9019H16.1503V0H16.1497Z" fill="#F1F1F1"/>
<path d="M61.9805 8.92133H52.4431V0H82.361V8.92133H72.8177V26.9019H61.9825V8.92133H61.9818H61.9805Z" fill="#F1F1F1"/>
<path d="M87.109 0H98.4068L105.357 9.45263L112.3 0H123.602V26.9019H112.811V13.5679L105.357 23.133H105.17L97.7105 13.5679V26.9019H87.109V0Z" fill="#F1F1F1"/>
<path d="M128.994 0H139.833V18.01H155.07V26.9019H128.994V0H128.994Z" fill="#F1F1F1"/>
<path d="M85.3866 122.201H111.641L109.166 145.148L85.3859 150.475V168.883L129.096 158.83L129.416 155.84L134.427 109.259L134.947 104.507H85.3866V122.201Z" fill="white"/>
<path d="M85.3866 86.3457V86.3889H136.887L137.315 82.4122L138.287 73.4421L138.796 68.6953H85.3866V86.3463V86.3457Z" fill="white"/>
</g>
<defs>
<clipPath id="clip0_30_3">
<rect width="170.92" height="200" fill="white"/>
</clipPath>
</defs>
</svg>
