<svg width="163" height="100" viewBox="0 0 163 100" fill="none" xmlns="http://www.w3.org/2000/svg">
<path d="M80.5347 99.7115C79.9828 99.7115 79.4675 99.5644 78.9889 99.3068L74.0936 96.3991C73.3573 95.994 73.7255 95.8469 73.9465 95.7733C74.9401 95.4421 75.1242 95.3682 76.1548 94.7797C76.2653 94.7058 76.4128 94.7427 76.5229 94.8163L80.2774 97.0615C80.4245 97.1351 80.6086 97.1351 80.7188 97.0615L95.4051 88.559C95.5522 88.4854 95.6261 88.338 95.6261 88.1542V71.1861C95.6261 71.0017 95.5522 70.8549 95.4051 70.781L80.7188 62.3154C80.5717 62.2415 80.3876 62.2415 80.2774 62.3154L65.5911 70.781C65.444 70.8545 65.3701 71.0386 65.3701 71.1857V88.1539C65.3701 88.3014 65.444 88.4851 65.5911 88.559L69.6032 90.8778C71.7749 91.9819 73.1366 90.6937 73.1366 89.4055V72.658C73.1366 72.4373 73.3207 72.2163 73.5784 72.2163H75.4554C75.6764 72.2163 75.8971 72.4004 75.8971 72.658V89.4055C75.8971 92.3131 74.3143 94.0064 71.5538 94.0064C70.7073 94.0064 70.0449 94.0064 68.1675 93.0861L64.3029 90.8778C63.3459 90.3259 62.757 89.295 62.757 88.1908V71.2227C62.757 70.1185 63.3459 69.0877 64.3029 68.5357L78.9889 60.0332C79.9092 59.5179 81.1608 59.5179 82.0809 60.0332L96.7669 68.5357C97.7239 69.0877 98.3131 70.1185 98.3131 71.2227V88.1908C98.3131 89.295 97.7239 90.3259 96.7669 90.8778L82.0809 99.3803C81.6022 99.6013 81.0503 99.7115 80.535 99.7115H80.5347ZM85.0621 88.0437C78.621 88.0437 77.2959 85.0991 77.2959 82.5962C77.2959 82.3752 77.4799 82.1545 77.7376 82.1545H79.6516C79.8723 82.1545 80.0564 82.3017 80.0564 82.5227C80.351 84.4733 81.1975 85.4303 85.0991 85.4303C88.1908 85.4303 89.5163 84.731 89.5163 83.0746C89.5163 82.1176 89.1478 81.4185 84.3261 80.9399C80.314 80.5348 77.8112 79.6517 77.8112 76.4494C77.8112 73.4679 80.3143 71.701 84.5102 71.701C89.2213 71.701 91.5405 73.3208 91.835 76.8539C91.835 76.9647 91.7981 77.0749 91.7245 77.1854C91.6507 77.259 91.5405 77.3326 91.43 77.3326H89.5159C89.3319 77.3326 89.1478 77.1854 89.1112 77.0013C88.6694 74.9771 87.5284 74.3144 84.5102 74.3144C81.1239 74.3144 80.7188 75.4924 80.7188 76.3756C80.7188 77.4431 81.1975 77.7743 85.7615 78.3631C90.2889 78.9523 92.4239 79.7988 92.4239 82.9641C92.387 86.2033 89.737 88.0437 85.0621 88.0437Z" fill="#539E43"/>
<path d="M34.9672 33.3479C34.9672 32.6854 34.599 32.0593 34.0102 31.7281L18.4038 22.7472C18.1459 22.5998 17.8516 22.5262 17.5573 22.4893H17.4099C17.1156 22.4893 16.821 22.5998 16.5634 22.7472L0.957006 31.7281C0.367834 32.0593 0 32.6851 0 33.3479L0.0369427 57.4934C0.0369427 57.8246 0.221019 58.1558 0.515287 58.3033C0.809873 58.4873 1.17771 58.4873 1.43567 58.3033L10.7111 53.0029C11.3 52.6717 11.6682 52.0459 11.6682 51.3835V40.0835C11.6682 39.4211 12.036 38.7953 12.6252 38.4641L16.5634 36.1819C16.858 35.9979 17.1892 35.924 17.5204 35.924C17.8516 35.924 18.1828 35.9979 18.4408 36.1819L22.379 38.4641C22.9682 38.7953 23.336 39.4208 23.336 40.0835V51.3835C23.336 52.0459 23.7041 52.6717 24.293 53.0029L33.5685 58.3033C33.7118 58.3935 33.8776 58.4414 34.047 58.4414C34.2163 58.4414 34.3822 58.3935 34.5255 58.3033C34.8201 58.1558 35.0041 57.8246 35.0041 57.4934L34.9672 33.3479ZM109.981 0.110589C109.687 -0.0368631 109.318 -0.0368631 109.061 0.110589C108.766 0.294666 108.582 0.588933 108.582 0.920143V24.8453C108.582 25.066 108.472 25.2867 108.251 25.4342C108.03 25.5443 107.809 25.5443 107.589 25.4342L103.687 23.1889C103.401 23.0261 103.077 22.9404 102.748 22.9404C102.419 22.9404 102.096 23.0261 101.81 23.1889L86.2032 32.2068C85.6143 32.538 85.2462 33.1638 85.2462 33.8262V51.8249C85.2462 52.4873 85.6143 53.1135 86.2032 53.4447L101.81 62.4625C102.096 62.6254 102.419 62.711 102.748 62.711C103.077 62.711 103.401 62.6254 103.687 62.4625L119.293 53.4447C119.882 53.1135 120.25 52.4877 120.25 51.8249V6.95677C120.25 6.2574 119.882 5.63193 119.293 5.3004L109.981 0.110589H109.981ZM108.546 45.8991C108.546 46.0832 108.472 46.2303 108.325 46.3039L102.988 49.3956C102.913 49.432 102.831 49.4509 102.748 49.4509C102.665 49.4509 102.583 49.432 102.509 49.3956L97.172 46.3039C97.0245 46.2303 96.951 46.0463 96.951 45.8991V39.7154C96.951 39.5313 97.0245 39.3842 97.172 39.3106L102.509 36.2186C102.583 36.1822 102.665 36.1633 102.748 36.1633C102.831 36.1633 102.913 36.1822 102.988 36.2186L108.325 39.3106C108.472 39.3838 108.546 39.5682 108.546 39.7154V45.8991ZM161.916 39.5682C162.505 39.237 162.837 38.6112 162.837 37.9485V33.5686C162.837 32.9061 162.468 32.2803 161.916 31.9491L146.42 22.9682C146.134 22.8054 145.811 22.7197 145.482 22.7197C145.153 22.7197 144.829 22.8054 144.543 22.9682L128.937 31.9857C128.347 32.317 127.98 32.9428 127.98 33.6052V51.6042C127.98 52.2666 128.348 52.8924 128.937 53.2236L144.432 62.0574C145.022 62.3886 145.721 62.3886 146.273 62.0574L155.659 56.8313C155.954 56.6838 156.138 56.3526 156.138 56.0214C156.138 55.6902 155.954 55.359 155.659 55.2115L139.979 46.1937C139.684 46.0096 139.5 45.7154 139.5 45.3842V39.7526C139.5 39.4214 139.684 39.0902 139.979 38.9428L144.874 36.1453C145.018 36.0551 145.183 36.0073 145.353 36.0073C145.522 36.0073 145.688 36.0551 145.831 36.1453L150.727 38.9428C151.021 39.1268 151.205 39.4211 151.205 39.7526V44.1695C151.205 44.5007 151.389 44.8319 151.684 44.9791C151.827 45.0693 151.993 45.1171 152.162 45.1171C152.332 45.1171 152.497 45.0693 152.641 44.9791L161.916 39.5682V39.5682Z" fill="#333333"/>
<path d="M145.242 38.7214C145.297 38.6853 145.361 38.6661 145.426 38.6661C145.492 38.6661 145.556 38.6853 145.611 38.7214L148.592 40.4513C148.702 40.5252 148.776 40.6354 148.776 40.7825V44.2427C148.776 44.3898 148.703 44.5003 148.592 44.5739L145.611 46.3038C145.556 46.3399 145.492 46.3591 145.426 46.3591C145.361 46.3591 145.297 46.3399 145.242 46.3038L142.261 44.5739C142.151 44.5003 142.077 44.3898 142.077 44.2427V40.7828C142.077 40.6354 142.15 40.5249 142.261 40.4516L145.242 38.7214V38.7214Z" fill="#539E43"/>
<path d="M76.5965 31.9857L61.0271 23.0417C60.8741 22.9645 60.7137 22.9028 60.5484 22.8577L43.1016 52.7456C43.2461 52.922 43.4207 53.0715 43.6172 53.1873L59.1866 62.1316C59.6283 62.3892 60.1436 62.4628 60.622 62.3153L77.0016 32.3542C76.8911 32.207 76.7436 32.0962 76.5965 31.986V31.9857Z" fill="url(#paint0_linear_105_5)"/>
<path fill-rule="evenodd" clip-rule="evenodd" d="M58.6714 19.7656L58.4507 19.8761H58.7449L58.6714 19.7656V19.7656Z" fill="url(#paint1_linear_105_5)"/>
<path fill-rule="evenodd" clip-rule="evenodd" d="M76.6335 53.15C77.0752 52.8924 77.4064 52.4507 77.5538 51.9723L60.4745 22.8207C60.0328 22.7472 59.5542 22.7838 59.1497 23.0414L43.6905 31.9491L60.364 62.3519C60.6065 62.3122 60.842 62.2379 61.0634 62.1312L76.6331 53.1503L76.6335 53.15Z" fill="url(#paint2_linear_105_5)"/>
<path fill-rule="evenodd" clip-rule="evenodd" d="M78.0691 52.8557L77.9586 52.6716V52.9293L78.0688 52.8557H78.0691Z" fill="url(#paint3_linear_105_5)"/>
<path fill-rule="evenodd" clip-rule="evenodd" d="M76.6334 53.1501L61.1006 62.0943C60.8814 62.2062 60.645 62.2807 60.4013 62.315L60.6959 62.8673L77.9217 52.8928V52.6717L77.4799 51.9354C77.4064 52.4507 77.0752 52.8924 76.6334 53.1501V53.1501Z" fill="url(#paint4_linear_105_5)"/>
<path fill-rule="evenodd" clip-rule="evenodd" d="M76.6334 53.1501L61.1006 62.0943C60.8814 62.2062 60.645 62.2807 60.4013 62.315L60.6959 62.8673L77.9217 52.8928V52.6717L77.4799 51.9354C77.4064 52.4507 77.0752 52.8924 76.6334 53.1501V53.1501Z" fill="url(#paint5_linear_105_5)"/>
<defs>
<linearGradient id="paint0_linear_105_5" x1="57.7725" y1="44.6675" x2="100.311" y2="21.5565" gradientUnits="userSpaceOnUse">
<stop offset="0.1376" stop-color="#41873F"/>
<stop offset="0.4032" stop-color="#54A044"/>
<stop offset="0.7136" stop-color="#66B848"/>
<stop offset="0.9081" stop-color="#6CC04A"/>
</linearGradient>
<linearGradient id="paint1_linear_105_5" x1="45.4624" y1="19.7805" x2="74.129" y2="19.7805" gradientUnits="userSpaceOnUse">
<stop offset="0.09192" stop-color="#6CC04A"/>
<stop offset="0.2864" stop-color="#66B848"/>
<stop offset="0.5968" stop-color="#54A044"/>
<stop offset="0.8624" stop-color="#41873F"/>
</linearGradient>
<linearGradient id="paint2_linear_105_5" x1="42.2042" y1="42.5684" x2="78.0614" y2="42.5684" gradientUnits="userSpaceOnUse">
<stop offset="0.09192" stop-color="#6CC04A"/>
<stop offset="0.2864" stop-color="#66B848"/>
<stop offset="0.5968" stop-color="#54A044"/>
<stop offset="0.8624" stop-color="#41873F"/>
</linearGradient>
<linearGradient id="paint3_linear_105_5" x1="67.224" y1="52.7649" x2="77.9895" y2="52.7649" gradientUnits="userSpaceOnUse">
<stop offset="0.09192" stop-color="#6CC04A"/>
<stop offset="0.2864" stop-color="#66B848"/>
<stop offset="0.5968" stop-color="#54A044"/>
<stop offset="0.8624" stop-color="#41873F"/>
</linearGradient>
<linearGradient id="paint4_linear_105_5" x1="42.2044" y1="57.4314" x2="78.0613" y2="57.4314" gradientUnits="userSpaceOnUse">
<stop offset="0.09192" stop-color="#6CC04A"/>
<stop offset="0.2864" stop-color="#66B848"/>
<stop offset="0.5968" stop-color="#54A044"/>
<stop offset="0.8624" stop-color="#41873F"/>
</linearGradient>
<linearGradient id="paint5_linear_105_5" x1="83.2852" y1="28.8617" x2="74.2012" y2="76.4613" gradientUnits="userSpaceOnUse">
<stop stop-color="#41873F"/>
<stop offset="0.3288" stop-color="#418B3D"/>
<stop offset="0.6352" stop-color="#419637"/>
<stop offset="0.9319" stop-color="#3FA92D"/>
<stop offset="1" stop-color="#3FAE2A"/>
</linearGradient>
</defs>
</svg>
