<svg width="190" height="100" viewBox="0 0 190 100" fill="none" xmlns="http://www.w3.org/2000/svg">
<g clip-path="url(#clip0_8_27)">
<path d="M94.8148 99.7037C147.18 99.7037 189.63 77.3843 189.63 49.8519C189.63 22.3194 147.18 0 94.8148 0C42.45 0 0 22.3194 0 49.8519C0 77.3843 42.45 99.7037 94.8148 99.7037Z" fill="url(#paint0_radial_8_27)"/>
<path d="M94.815 96C145.134 96 185.926 75.3388 185.926 49.8519C185.926 24.3649 145.134 3.7037 94.815 3.7037C44.4957 3.7037 3.70386 24.3649 3.70386 49.8519C3.70386 75.3388 44.4957 96 94.815 96Z" fill="#6181B6"/>
<path d="M113.259 64.8148L117.778 41.5556C118.815 36.2963 117.926 32.3704 115.259 29.9259C112.667 27.5556 108.222 26.3704 101.704 26.3704H93.852L96.0742 14.8148C96.1483 14.3704 96.0742 13.9259 95.7779 13.5556C95.4816 13.1852 95.1113 13.037 94.6668 13.037H83.852C83.1113 13.037 82.5187 13.5556 82.3705 14.2222L77.5557 38.8889C77.1113 36.0741 76.0742 33.7037 74.2965 31.7778C71.1113 28.1481 66.1483 26.2963 59.4076 26.2963H38.5928C37.852 26.2963 37.2594 26.8148 37.1113 27.4815L27.4076 77.5555C27.3335 78 27.4076 78.4444 27.7039 78.8148C28.0002 79.1852 28.3705 79.3333 28.815 79.3333H39.7039C40.4446 79.3333 41.0372 78.8148 41.1854 78.1481L43.5557 66.0741H51.6298C55.852 66.0741 59.4816 65.6296 62.2224 64.7407C65.1113 63.7778 67.7039 62.2222 70.0002 60.0741C71.852 58.3704 73.4076 56.4444 74.5928 54.3704L72.6668 64.3704C72.5928 64.8148 72.6668 65.2593 72.9631 65.6296C73.2594 66 73.6298 66.1481 74.0742 66.1481H84.8891C85.6298 66.1481 86.2224 65.6296 86.3705 64.963L91.7039 37.5555H99.1113C102.296 37.5555 103.185 38.1481 103.482 38.4444C103.704 38.6667 104.148 39.5556 103.63 42.2963L99.3335 64.4444C99.2594 64.8889 99.3335 65.3333 99.6298 65.7037C99.9261 66.0741 100.296 66.2222 100.741 66.2222H111.852C112.519 66 113.111 65.4815 113.259 64.8148ZM63.1854 45.5556C62.5187 49.037 61.2594 51.5556 59.4076 52.963C57.5557 54.3704 54.5187 55.1111 50.5187 55.1111H45.7039L49.1854 37.1852H55.4076C60.0002 37.1852 61.852 38.1481 62.5928 38.963C63.5557 40.1481 63.7779 42.4444 63.1854 45.5556V45.5556Z" fill="white"/>
<path d="M159.482 31.7778C156.297 28.1481 151.334 26.2963 144.593 26.2963H123.63C122.889 26.2963 122.297 26.8148 122.148 27.4815L112.445 77.4815C112.371 77.9259 112.445 78.3704 112.741 78.7407C113.037 79.1111 113.408 79.2593 113.852 79.2593H124.741C125.482 79.2593 126.074 78.7407 126.222 78.0741L128.593 66H136.667C140.889 66 144.519 65.5556 147.259 64.6667C150.148 63.7037 152.741 62.1481 155.037 60C156.963 58.2222 158.593 56.2222 159.778 54.0741C160.963 51.9259 161.852 49.5556 162.371 46.963C163.63 40.5185 162.667 35.4815 159.482 31.7778V31.7778ZM148.148 45.5556C147.482 49.037 146.222 51.5556 144.371 52.963C142.519 54.3704 139.482 55.1111 135.482 55.1111H130.667L134.148 37.1852H140.371C144.963 37.1852 146.815 38.1481 147.556 38.963C148.593 40.1481 148.815 42.4444 148.148 45.5556Z" fill="white"/>
<path d="M55.4077 35.7037C59.5558 35.7037 62.2966 36.4445 63.704 38C65.1114 39.5556 65.4077 42.1482 64.6669 45.8519C63.9262 49.7037 62.4447 52.5185 60.2966 54.1482C58.1484 55.7778 54.8892 56.5926 50.5188 56.5926H43.9262L48.0003 35.7037H55.4077V35.7037ZM28.8892 77.7778H39.778L42.3706 64.5185H51.704C55.8521 64.5185 59.1855 64.0741 61.8521 63.1852C64.5188 62.2963 66.8892 60.8889 69.1114 58.8148C70.9632 57.1111 72.4447 55.2593 73.5558 53.2593C74.6669 51.2593 75.4818 49.037 75.9262 46.5926C77.1114 40.6667 76.2225 36.0741 73.3336 32.7407C70.4447 29.4074 65.8521 27.7778 59.5558 27.7778H38.5929L28.8892 77.7778Z" fill="#000004"/>
<path d="M83.9261 14.5185H94.7409L92.1483 27.7778H101.778C107.852 27.7778 112 28.8148 114.296 30.963C116.593 33.1111 117.259 36.5185 116.371 41.2593L111.852 64.5185H100.889L105.185 42.3704C105.704 39.8519 105.482 38.1482 104.667 37.2593C103.852 36.3704 102 35.8519 99.2595 35.8519H90.5928L85.0372 64.5185H74.2224L83.9261 14.5185V14.5185Z" fill="#000004"/>
<path d="M140.371 35.7037C144.519 35.7037 147.259 36.4445 148.667 38C150.074 39.5556 150.371 42.1482 149.63 45.8519C148.889 49.7037 147.408 52.5185 145.259 54.1482C143.111 55.7778 139.852 56.5926 135.482 56.5926H128.889L132.963 35.7037H140.371ZM113.852 77.7778H124.741L127.334 64.5185H136.667C140.815 64.5185 144.148 64.0741 146.815 63.1852C149.482 62.2963 151.852 60.8889 154.074 58.8148C155.926 57.1111 157.408 55.2593 158.519 53.2593C159.63 51.2593 160.445 49.037 160.889 46.5926C162.074 40.6667 161.185 36.0741 158.296 32.7407C155.408 29.4074 150.815 27.7778 144.519 27.7778H123.556L113.852 77.7778Z" fill="#000004"/>
</g>
<defs>
<radialGradient id="paint0_radial_8_27" cx="0" cy="0" r="1" gradientUnits="userSpaceOnUse" gradientTransform="translate(56.9271 17.5315) scale(124.515)">
<stop stop-color="white"/>
<stop offset="0.5" stop-color="#4C6B97"/>
<stop offset="1" stop-color="#231F20"/>
</radialGradient>
<clipPath id="clip0_8_27">
<rect width="189.63" height="100" fill="white"/>
</clipPath>
</defs>
</svg>
