<svg width="113" height="100" viewBox="0 0 113 100" fill="none" xmlns="http://www.w3.org/2000/svg">
<path d="M92.3171 32.3789C91.1222 31.9689 89.9171 31.5891 88.7031 31.2398C88.907 30.4065 89.0947 29.5833 89.2614 28.7745C91.9974 15.4933 90.2088 4.79378 84.0996 1.27098C78.2421 -2.10622 68.6627 1.41527 58.9882 9.83501C58.0347 10.6663 57.1024 11.5215 56.1921 12.3999C55.5827 11.8158 54.9626 11.2431 54.332 10.6819C44.1925 1.67931 34.0294 -2.11499 27.9268 1.41791C22.0746 4.80562 20.3417 14.864 22.8048 27.4508C23.0499 28.6974 23.3266 29.9376 23.6346 31.1701C22.1961 31.5789 20.8079 32.014 19.4794 32.4771C7.59167 36.6218 0 43.117 0 49.8543C0 56.8126 8.15 63.792 20.5316 68.024C21.5354 68.3657 22.5475 68.6823 23.5671 68.9736C23.236 70.3011 22.942 71.6376 22.6855 72.9815C20.3373 85.3499 22.1711 95.1705 28.0075 98.5368C34.0355 102.013 44.1531 98.4403 54.0044 89.8284C54.8032 89.1283 55.5845 88.4083 56.3474 87.6692C57.3331 88.6203 58.3452 89.5438 59.3825 90.4385C68.9254 98.6499 78.35 101.966 84.1807 98.5903C90.2031 95.1039 92.1605 84.5539 89.6193 71.7183C89.4191 70.7128 89.1946 69.7122 88.9461 68.7175C89.6566 68.5069 90.3539 68.2903 91.0338 68.0648C103.906 63.8004 112.281 56.9056 112.281 49.8543C112.281 43.0925 104.444 36.5534 92.3171 32.3789V32.3789ZM89.5254 63.5122C88.9114 63.7153 88.2816 63.9113 87.6395 64.1021C86.2184 59.6034 84.3009 54.8201 81.9539 49.8776C84.1934 45.053 86.0373 40.3306 87.4184 35.8613C88.5671 36.1938 89.6816 36.5442 90.7561 36.914C101.146 40.4911 107.484 45.7793 107.484 49.8543C107.484 54.1947 100.639 59.8293 89.5254 63.5122V63.5122ZM84.914 72.6499C86.0377 78.3254 86.1978 83.4569 85.4535 87.4688C84.7851 91.0736 83.4403 93.4767 81.7772 94.4394C78.239 96.4876 70.6719 93.8254 62.511 86.8026C61.5462 85.9707 60.6048 85.1122 59.6877 84.228C62.8518 80.7679 66.0136 76.7455 69.0996 72.278C74.5276 71.7964 79.6557 71.0087 84.3061 69.9337C84.5302 70.8342 84.7328 71.7398 84.914 72.6499V72.6499ZM38.2789 94.0854C34.8219 95.3061 32.0684 95.3411 30.4039 94.3815C26.8623 92.339 25.3899 84.4534 27.3982 73.8762C27.637 72.6264 27.9103 71.3833 28.218 70.1486C32.8171 71.1661 37.9079 71.8977 43.3487 72.339C46.4557 76.7104 49.7088 80.7284 52.9873 84.2468C52.2905 84.921 51.5773 85.578 50.8482 86.217C46.4917 90.0249 42.1263 92.7267 38.2789 94.0854V94.0854ZM22.0833 63.4854C16.6083 61.614 12.0868 59.1819 8.98772 56.528C6.20263 54.1433 4.79693 51.7754 4.79693 49.8543C4.79693 45.7657 10.8921 40.5508 21.0583 37.0065C22.2921 36.5767 23.5833 36.171 24.9232 35.7903C26.3285 40.3604 28.1715 45.139 30.3956 49.971C28.1425 54.8745 26.2732 59.7293 24.8544 64.3534C23.9237 64.0868 22.9998 63.7974 22.0833 63.4854V63.4854ZM27.5123 26.5293C25.4022 15.7455 26.8035 7.61089 30.3303 5.56922C34.0864 3.39466 42.3925 6.4951 51.1474 14.2688C51.7183 14.7768 52.2799 15.2952 52.832 15.8236C49.5697 19.3267 46.3465 23.3148 43.2671 27.6604C37.9864 28.1499 32.9316 28.9359 28.2842 29.989C27.9979 28.8426 27.7405 27.6891 27.5123 26.5297V26.5293ZM75.9452 38.489C74.8475 36.5929 73.7091 34.7207 72.5307 32.8736C76.1132 33.3267 79.5456 33.928 82.7689 34.6631C81.8013 37.7648 80.5952 41.0074 79.1754 44.3319C78.1377 42.363 77.0607 40.4149 75.9452 38.489V38.489ZM56.1943 19.2517C58.4066 21.6486 60.6224 24.3245 62.8018 27.228C58.3807 27.0192 53.9523 27.0183 49.5311 27.2254C51.7127 24.3486 53.9474 21.6762 56.1943 19.2517ZM36.3167 38.5219C35.2151 40.4323 34.1582 42.3682 33.1469 44.328C31.7504 41.0153 30.5553 37.7578 29.5794 34.6122C32.7829 33.8955 36.1991 33.3096 39.7588 32.8648C38.5673 34.7232 37.4196 36.6092 36.3167 38.5214V38.5219ZM39.861 67.185C36.1833 66.7745 32.7158 66.2188 29.5132 65.5214C30.5044 62.3197 31.7259 58.9929 33.1526 55.6091C34.1679 57.5704 35.2292 59.5075 36.3355 61.4188C37.4732 63.3837 38.6513 65.3083 39.861 67.185ZM56.3268 80.7947C54.0531 78.342 51.7855 75.6284 49.5711 72.71C51.7211 72.7942 53.9127 72.8372 56.1404 72.8372C58.4289 72.8372 60.6912 72.7859 62.918 72.6868C60.7316 75.6578 58.5241 78.3754 56.3268 80.7947ZM79.2206 55.4363C80.7215 58.8574 81.9864 62.1666 82.9908 65.3135C79.7355 66.0565 76.2206 66.6547 72.5171 67.099C73.7039 65.2177 74.8531 63.3129 75.964 61.3859C77.0936 59.4271 78.1794 57.4434 79.2206 55.4363V55.4363ZM71.8092 58.9894C70.1084 61.9439 68.312 64.8424 66.4228 67.6802C63.0007 67.9226 59.571 68.043 56.1404 68.0412C52.6461 68.0412 49.2474 67.9324 45.9746 67.7201C44.0361 64.8889 42.2054 61.9853 40.4864 59.0157H40.4868C38.776 56.0618 37.1779 53.044 35.6961 49.9688C37.1741 46.8929 38.7673 43.8736 40.4724 40.9175L40.4719 40.9179C42.1763 37.961 43.9924 35.0699 45.9162 32.2508C49.2553 31.9982 52.6794 31.8666 56.1399 31.8666H56.1404C59.6167 31.8666 63.0452 31.9995 66.3833 32.2539C68.2877 35.0687 70.0922 37.9499 71.7934 40.892C73.5041 43.8417 75.1184 46.8462 76.6338 49.9008C75.134 52.9866 73.5248 56.0181 71.8092 58.9894V58.9894ZM81.7039 5.42624C85.4636 7.59466 86.9259 16.339 84.5636 27.8061C84.4127 28.5376 84.2434 29.2828 84.0592 30.0385C79.4004 28.9631 74.3421 28.1635 69.0461 27.6666C65.961 23.2732 62.764 19.2789 59.5548 15.821C60.3959 15.0102 61.257 14.2205 62.1373 13.4526C70.4268 6.23896 78.1741 3.39071 81.7039 5.42624V5.42624ZM56.1404 39.828C61.6776 39.828 66.1667 44.317 66.1667 49.8543C66.1667 55.3916 61.6776 59.8806 56.1404 59.8806C50.6031 59.8806 46.114 55.3916 46.114 49.8543C46.114 44.317 50.6031 39.828 56.1404 39.828V39.828Z" fill="#00D8FF"/>
</svg>
