<svg width="100" height="100" viewBox="0 0 100 100" fill="none" xmlns="http://www.w3.org/2000/svg">
<path fill-rule="evenodd" clip-rule="evenodd" d="M50 6.25C58.6529 6.25 67.1115 8.81589 74.3062 13.6232C81.5008 18.4305 87.1084 25.2633 90.4197 33.2576C93.7311 41.2519 94.5975 50.0485 92.9094 58.5352C91.2213 67.0219 87.0545 74.8174 80.9359 80.9359C74.8174 87.0545 67.0219 91.2213 58.5352 92.9094C50.0485 94.5975 41.2519 93.7311 33.2576 90.4197C25.2633 87.1084 18.4305 81.5008 13.6232 74.3062C8.81589 67.1115 6.25 58.6529 6.25 50C6.25 38.3968 10.8594 27.2688 19.0641 19.0641C27.2688 10.8594 38.3968 6.25 50 6.25V6.25Z" fill="#CC6699"/>
<path d="M77.4437 24.975C75.4625 17.2063 62.5781 14.6625 50.3844 18.9812C42.7478 21.5473 35.6924 25.5944 29.6219 30.8906C22.9062 37.1719 21.8344 42.6406 22.275 44.925C23.8375 52.9875 34.8781 58.2563 39.4187 62.1656V62.1875C38.0812 62.8469 28.2812 67.8125 25.9812 72.875C23.5625 78.225 26.3656 82.0625 28.225 82.5781C31.0166 83.2502 33.9486 83.0315 36.6096 81.9526C39.2706 80.8738 41.5271 78.9889 43.0625 76.5625C44.3314 74.5966 45.1253 72.3624 45.3813 70.0366C45.6373 67.7108 45.3484 65.3573 44.5375 63.1625C46.7246 62.6068 48.9981 62.4763 51.2344 62.7781C58.9094 63.675 60.4156 68.4656 60.1281 70.4719C59.9929 71.186 59.7055 71.8627 59.2854 72.4558C58.8654 73.049 58.3225 73.5447 57.6937 73.9094C57.1562 74.2438 56.9906 74.3563 57.0375 74.6063C57.1031 74.9656 57.35 74.9531 57.8094 74.875C58.9627 74.5118 59.979 73.8076 60.7243 72.8554C61.4695 71.9032 61.9089 70.7475 61.9844 69.5406C62.1687 64.8531 57.6656 59.5844 49.6906 59.7188C47.3743 59.6526 45.0631 59.9694 42.85 60.6563C42.7392 60.5297 42.6267 60.4047 42.5125 60.2813C37.5812 55.0219 28.4687 51.3 28.8531 44.2281C28.9937 41.6563 29.8875 34.8875 46.3531 26.675C59.8531 19.9469 70.6594 21.8 72.5281 25.9031C75.1969 31.7656 66.7531 42.6563 52.7344 44.2281C51.1849 44.5427 49.5845 44.5043 48.0519 44.1159C46.5193 43.7275 45.0938 42.9989 43.8812 41.9844C43.1437 41.1719 43.0344 41.1375 42.7594 41.2875C42.3125 41.5344 42.5969 42.2531 42.7594 42.6781C43.2962 43.6456 44.0207 44.496 44.8906 45.1797C45.7605 45.8634 46.7581 46.3664 47.825 46.6594C53.3368 47.857 59.0858 47.2885 64.2562 45.0344C72.7594 41.7563 79.3906 32.6156 77.4437 24.975V24.975ZM41.3062 64.5719C41.9269 66.7116 41.8954 68.9877 41.2156 71.1094C41.1427 71.3302 41.0625 71.549 40.975 71.7656C40.8875 71.9823 40.7927 72.1906 40.6906 72.3906C40.1647 73.4667 39.4834 74.4596 38.6687 75.3375C36.1281 78.1094 32.575 79.1594 31.0531 78.275C29.4094 77.3219 30.2312 73.4125 33.1781 70.2969C35.4424 68.0578 38.053 66.1985 40.9094 64.7906L41.3062 64.5719Z" fill="white"/>
</svg>
