<svg width="97" height="97" viewBox="0 0 97 97" fill="none" xmlns="http://www.w3.org/2000/svg">
<path d="M48.4375 0C21.7383 0 0 21.7187 0 48.4375C0 75.1367 21.7383 96.875 48.4375 96.875C75.1367 96.875 96.875 75.1367 96.875 48.4375C96.875 21.7187 75.1367 0 48.4375 0ZM4.88281 48.4375C4.88281 42.1289 6.23047 36.1328 8.65234 30.7227L29.4336 87.6367C14.9023 80.5664 4.88281 65.6641 4.88281 48.4375ZM48.4375 91.9922C44.1602 91.9922 40.0391 91.3672 36.1328 90.2148L49.1992 52.2461L62.5781 88.9258C62.6758 89.1406 62.7734 89.3359 62.8906 89.5312C58.3789 91.1133 53.5156 91.9922 48.4375 91.9922V91.9922ZM54.4336 28.0273C57.0508 27.8906 59.4141 27.6172 59.4141 27.6172C61.7578 27.3437 61.4844 23.8867 59.1406 24.0234C59.1406 24.0234 52.0898 24.5703 47.5391 24.5703C43.2617 24.5703 36.0742 24.0234 36.0742 24.0234C33.7305 23.8867 33.457 27.4805 35.8008 27.6172C35.8008 27.6172 38.0273 27.8906 40.3711 28.0273L47.1484 46.6211L37.6172 75.1953L21.7578 28.0273C24.375 27.8906 26.7383 27.6172 26.7383 27.6172C29.082 27.3437 28.8086 23.8867 26.4648 24.0234C26.4648 24.0234 19.4141 24.5703 14.8633 24.5703C14.043 24.5703 13.0859 24.5508 12.0508 24.5117C19.8437 12.6953 33.2227 4.88281 48.4375 4.88281C59.7656 4.88281 70.0977 9.21875 77.8516 16.3086C77.6563 16.2891 77.4805 16.2695 77.2852 16.2695C73.0078 16.2695 69.9805 20 69.9805 24.0039C69.9805 27.5977 72.0508 30.625 74.2578 34.2187C75.918 37.1094 77.8516 40.8398 77.8516 46.2305C77.8516 49.9609 76.4258 54.2773 74.5313 60.3125L70.1953 74.8242L54.4336 28.0273V28.0273ZM70.332 86.0742L83.6328 47.6172C86.1133 41.4063 86.9531 36.4453 86.9531 32.0117C86.9531 30.4102 86.8555 28.9258 86.6602 27.5391C90.0586 33.75 91.9922 40.8594 91.9922 48.4375C91.9922 64.5117 83.2813 78.5352 70.332 86.0742V86.0742Z" fill="#1C85B4"/>
</svg>
