<svg width="500" height="500" viewBox="0 0 500 500" fill="none" xmlns="http://www.w3.org/2000/svg">
<path d="M0 100C150 200 350 0 500 100V0H0V100Z" fill="#232323"/>
<path d="M281.068 109.789C283.379 110.359 286.38 112.366 290.958 116.387C296.113 120.924 298.455 122.408 301.446 123.016C305.058 123.787 308.27 123.091 312.903 120.575C314.942 119.493 318.904 116.547 321.121 114.514L322.463 113.305L324.132 113.302C325.293 113.322 325.821 113.41 325.835 113.637C325.841 113.82 325.79 115.024 325.699 116.305C325.495 120.088 325.835 123.75 326.699 126.742C328.501 132.829 330.572 135.35 346.028 150.089C349.377 153.275 352.436 156.192 352.833 156.602L353.578 157.295L352.554 158.331L351.53 159.366L349.571 159.399C348.365 159.434 345.712 159.799 342.662 160.351C337.97 161.2 337.613 161.311 335.915 162.193C331.904 164.275 330.145 166.455 326.416 173.818C324.977 176.721 323.341 179.73 322.836 180.51C322.305 181.296 321.944 181.982 322.005 182.017C322.065 182.052 322.618 181.837 323.204 181.501C324.95 180.588 329.892 179.785 334.848 179.646C342.049 179.423 344.726 178.893 347.38 177.194C350.966 174.844 352.988 169.652 352.942 162.857C352.922 161.85 352.923 160.815 352.953 160.534C352.956 160.257 353.367 159.7 353.884 159.285L354.796 158.522L357.333 161.235C364.384 168.807 368.81 176.005 373.005 186.691C375.427 192.78 377.513 201.481 377.95 207.171C378.293 211.59 378.401 211.295 376.509 210.81C375.663 210.595 374.913 210.318 374.832 210.171C374.782 210.042 374.232 208.786 373.657 207.396C371.849 203.058 370.006 200.61 367.157 198.851C364.631 197.239 362.258 196.772 354.843 196.414C351.556 196.25 348.097 196.026 347.128 195.88C345.303 195.612 345.098 195.672 346.039 196.26C347.714 197.336 349.349 200.12 350.975 204.79C352.685 209.629 354.065 211.747 356.43 213.065C358.021 213.972 360.2 214.406 362.662 214.328C364.804 214.262 370.037 213.131 372.664 212.173L374.306 211.577L376.232 212.4L378.132 213.228L377.955 215.674C377.389 223.108 374.734 230.598 370.317 237.282C369.537 238.48 368.61 240.05 368.254 240.758C366.668 243.895 365.54 248.075 365.338 251.421C365.276 252.421 365.213 253.26 365.191 253.287C365.169 253.314 364.718 253.349 364.188 253.399C363.39 253.452 363.097 253.321 362.439 252.658C359.509 249.557 356.332 247.328 353.795 246.547C350.748 245.627 347.914 245.887 341.767 247.62C339.922 248.138 337.317 248.77 335.962 249.016C333.933 249.406 333.602 249.512 334.059 249.659C335.682 250.147 338.369 252.051 340.227 253.99C343.563 257.546 344.946 258.79 346.37 259.52C350.393 261.665 354.985 260.558 361.529 255.811C363.052 254.708 363.253 254.626 364.179 254.688L365.188 254.758L365.916 257.89C366.725 261.467 366.93 262.004 369.631 266.962C372.206 271.668 374.061 274.481 379.367 281.634C381.818 284.913 384.081 288.043 384.454 288.619C385.125 289.647 385.125 289.647 384.644 290.561C384.208 291.422 384.063 291.517 382.498 291.938C380.396 292.525 378.117 293.466 376.94 294.254C374.709 295.761 373.9 297.241 372.995 301.61C372.675 303.116 372.243 304.895 372.065 305.548L371.711 306.715L372.539 306.083C373.748 305.174 374.907 304.735 378.486 303.834C382.4 302.85 383.813 302.18 384.937 300.805C386.127 299.348 386.326 297.772 385.68 294.35C385.265 292.058 385.229 291.559 385.567 291.199C385.928 290.812 386.034 290.953 387.34 293.107C390.679 298.616 392.847 304.2 392.817 307.308C392.806 308.735 392.269 311.567 392.028 311.427C391.968 311.392 391.946 310.821 391.989 310.17C392.15 307.934 391.518 307.267 387.373 305.191L385.836 304.434L385.997 305.325C386.086 305.814 386.057 306.992 385.909 307.961C385.755 309.046 385.79 309.982 385.949 310.413C386.369 311.394 387.854 312.159 389.663 312.338C390.541 312.431 391.249 312.625 391.338 312.816C391.665 313.584 388.562 317.409 385.858 319.577L384.565 320.615L383.728 320.008C382.918 319.396 382.888 319.379 382.84 317.48C382.743 314.119 381.678 311.806 379.566 310.396C378.831 309.908 376.586 308.959 374.235 308.166C371.997 307.399 370.087 306.664 369.959 306.55C369.377 306.012 369.361 306.52 369.935 307.611C370.488 308.729 370.552 309.085 370.536 312.122C370.528 316.835 371.237 318.523 373.654 319.533C374.995 320.095 378.543 320.51 380.612 320.342C381.914 320.245 382.273 320.294 382.842 320.766L383.537 321.33L382.007 322.25C379.923 323.524 376.176 325.282 373.327 326.349L370.979 327.211L370.353 326.727C369.817 326.295 369.701 325.949 369.436 324.043C368.914 320.414 368.15 319.61 363.728 318.089C362.124 317.552 360.503 316.926 360.119 316.743L359.435 316.384L359.847 317.619C360.077 318.29 360.296 319.951 360.356 321.319C360.411 322.666 360.598 324.148 360.783 324.575C361.488 326.24 363.825 327.104 367.359 326.993C368.512 326.968 369.226 327.046 369.371 327.249C369.485 327.435 369.547 327.631 369.503 327.685C369.349 327.874 365.323 328.534 362.102 328.887C357.063 329.454 353.077 330.635 350.627 332.274C350.243 332.527 349.23 333.331 348.389 334.035C346.841 335.303 346.841 335.303 345.42 335.331C341.128 335.418 339.633 336.378 337.143 340.621C336.624 341.473 336.053 342.335 335.851 342.556C335.236 343.173 335.45 343.318 336.401 342.916C337.072 342.61 337.945 342.521 340.012 342.492C344.234 342.463 345.252 342.141 346.402 340.462C346.867 339.757 347.471 337.442 347.496 336.242C347.499 335.667 350.201 333.638 352.308 332.636C353.77 331.935 354.592 331.717 357.572 331.224C359.505 330.897 361.454 330.659 361.917 330.69C362.848 330.774 362.703 330.869 360.608 331.639C358.866 332.276 357.802 333.09 357.267 334.152C356.915 334.882 356.937 335.154 357.363 336.616C357.659 337.505 357.995 338.915 358.144 339.739C358.325 340.74 358.506 341.144 358.672 341.022C358.812 340.905 359.909 339.971 361.097 338.952C363.821 336.597 364.085 335.974 363.594 333.259C363.4 332.191 363.319 331.149 363.417 330.947C363.573 330.62 364.073 330.553 367.153 330.317C369.096 330.195 371.735 329.901 373.039 329.665L375.389 329.263L374.348 329.911C373.067 330.717 372.32 331.795 372.151 333.09C372.053 333.889 372.212 334.618 373.004 336.911C373.939 339.546 374.144 340.681 373.878 341.741C373.718 342.344 379.598 337.35 380.6 336.042C381.77 334.474 381.943 332.903 381.245 330.088C380.656 327.873 380.656 327.873 381.281 327.162C381.638 326.753 382.059 326.401 382.267 326.363C383.153 326.203 386.062 324.872 387.61 323.902C388.528 323.322 389.973 322.233 390.807 321.485C391.64 320.736 392.091 320.402 391.831 320.748C391.032 321.835 390.428 323.852 390.605 324.831C390.846 326.166 391.531 326.824 394.681 328.759C396.615 329.926 397.652 330.749 398.06 331.365C398.399 331.901 398.652 332.108 398.694 331.894C398.714 331.706 399.074 330.124 399.466 328.422C400.385 324.279 400.31 323.12 398.959 321.457C398.375 320.759 397.197 319.754 396.338 319.174C394.444 317.931 394.265 317.388 395.216 315.355C396.047 313.549 396.621 311.216 396.727 309.128L396.814 307.527L397.198 308.606C397.791 310.246 398.958 311.781 400.051 312.319C401.441 313.01 403.182 313.108 407.01 312.691C410.682 312.303 411.622 312.293 413.103 312.738C413.642 312.893 414.122 313.013 414.2 312.999C414.252 312.989 414.027 312.639 413.66 312.246C413.315 311.826 412.219 310.232 411.243 308.708C408.715 304.706 407.36 303.618 404.352 303.06C403.016 302.819 399.458 302.796 398.181 303.027C397.477 303.155 397.188 303.046 396.58 302.513C396.191 302.147 395.825 301.615 395.777 301.348C395.725 301.059 395.313 300.122 394.887 299.257C392.406 294.328 390.362 290.469 388.221 286.673C384.283 279.641 382 275.503 382.066 275.422C382.088 275.395 382.413 275.405 382.798 275.451C383.321 275.517 383.753 275.967 384.853 277.584C387.576 281.619 391.308 284.689 394.22 285.312C397.915 286.091 400.417 285.339 407.72 281.213C411.336 279.18 412.94 278.522 415.417 278.074L417.476 277.701L416.154 277.09C415.418 276.74 412.462 275.138 409.581 273.499C402.352 269.406 400.202 268.83 395.354 269.707C392.386 270.268 389.415 271.403 385.62 273.492L384.026 274.355L382.67 274.003C381.932 273.792 381.204 273.487 381.037 273.31C380.632 272.855 378.912 268.707 378.13 266.321C377.264 263.765 376.293 258.402 376.257 255.972C376.182 252.285 377.281 248.984 380.215 244.224C382.711 240.164 382.408 240.425 384.586 240.261L386.447 240.131L387.719 241.211C389.973 243.101 393.672 245.098 395.802 245.563C397.431 245.934 397.999 245.946 399.563 245.663C402.039 245.215 403.653 244.165 407.867 240.23C411.208 237.12 412.876 235.922 414.848 235.22C415.859 234.853 415.885 234.849 415.219 234.739C414.83 234.672 414.026 234.542 413.416 234.445C412.832 234.344 410.293 233.7 407.78 233.052C405.288 232.377 402.618 231.757 401.878 231.684C400.013 231.493 397.274 231.828 395.666 232.464C393.727 233.205 390.242 235.514 388.266 237.389L386.558 238.962L385.15 238.918L383.742 238.874L385.86 235.847C388.853 231.559 390.475 228.623 391.606 225.499C393.603 219.874 394.68 211.842 394.467 204.273C394.378 200.957 393.7 194.529 393.209 192.113C393.005 191.138 392.916 190.35 392.999 190.358C393.111 190.384 393.506 190.335 393.897 190.264C394.501 190.178 394.944 190.397 396.367 191.564C397.318 192.357 399.367 193.71 400.95 194.573C404.575 196.606 406.721 197.16 409.513 196.815C412.934 196.38 415.141 195.038 419.577 190.696C420.878 189.403 422.682 187.767 423.553 187.08C425.004 185.875 427.616 184.391 428.555 184.221C429.311 184.084 428.885 183.817 427.558 183.62C426.84 183.52 423.911 182.809 421.027 182.044C418.172 181.297 415.019 180.535 414.072 180.361C408.041 179.315 402.983 181.265 396.61 187.107C394.67 188.883 394.644 188.888 393.587 188.85L392.526 188.789L391.332 184.868C389.076 177.462 386.011 170.639 381.983 164.151C378.748 158.922 376.186 155.478 371.369 149.984C360.494 137.496 358.5 134.96 356.243 130.52C354.74 127.574 354.698 127.489 355.532 127.338C356.028 127.249 356.595 127.56 358.104 128.758C360.715 130.836 365.127 133.347 367.237 134C371.739 135.368 375.859 134.485 379.655 131.361C380.541 130.603 382.599 128.737 384.18 127.21C388.261 123.276 390.313 121.825 393.13 120.878L394.144 120.534L391.292 119.947C389.754 119.628 386.234 118.771 383.544 118.04C380.832 117.335 377.769 116.626 376.722 116.493C370.458 115.65 364.831 118.025 358.123 124.249C356.486 125.764 356.341 125.859 355.423 125.841C354.5 125.802 354.44 125.766 354.018 124.625C353.534 123.287 353.313 119.834 353.55 117.723C353.717 116.267 354.249 114.148 356.007 107.946C357.717 101.776 358.166 99.0518 358.009 95.3569C357.897 93.4006 357.74 92.5327 357.189 90.9775C356.084 87.845 354.994 86.4335 350.992 82.7679C345.907 78.1723 342.703 76.6837 339.083 77.3617C337.415 77.6637 313.588 82.7118 311.862 83.1392L310.957 83.3488L312.803 84.0261C315.252 84.9158 318.994 86.9965 320.888 88.5383C325.299 92.0839 327.811 96.5936 327.736 100.79C327.707 101.669 327.392 104.093 327.016 106.184C326.667 108.269 326.324 110.239 326.276 110.57C326.204 111.065 325.99 111.219 325.033 111.438C322.92 111.959 322.336 111.857 321.014 110.649C315.328 105.564 309.474 102.671 304.324 102.477C301.474 102.349 296.752 103.479 290.515 105.757C287.74 106.788 284.157 107.965 282.569 108.414C281.003 108.835 279.706 109.254 279.718 109.32C279.73 109.387 280.334 109.6 281.068 109.789Z" fill="#A3C896"/>
<path d="M309.194 219.523C310.251 221.791 312.639 224.278 316.201 226.851L318.123 228.25L318.133 229.788C318.172 231.642 318.367 231.975 319.331 231.8C320.035 231.673 320.097 231.57 320.071 230.678C320.056 230.152 319.933 229.324 319.766 228.849C319.501 227.977 319.501 227.977 321.351 226.149C325.876 221.698 328.066 217.441 327.829 213.599C327.715 211.781 327.066 210.129 324.578 205.454C323.475 203.378 322.206 200.827 321.774 199.779L320.95 197.906L320.418 199.427C319.741 201.342 318.255 203.243 314.591 206.802C313.014 208.351 311.207 210.264 310.572 211.069C308.402 213.806 307.915 216.767 309.194 219.523Z" fill="#A3C896"/>
<path d="M327.475 304.011C327.741 303.848 328.786 303.521 329.794 303.293C331.364 302.894 332.275 302.867 336.204 303.006C343.49 303.25 345.956 302.597 348.152 299.855C349.316 298.403 350.477 294.999 350.797 292.16L351.03 290.026L352.295 289.131C353.612 288.226 353.652 288.149 353.287 287.618C352.925 287.109 352.015 287.435 351.061 288.412L350.177 289.33L347.452 289.295C344.185 289.242 339.946 289.918 338.035 290.815C335.427 292.023 334.165 293.377 331.164 298.218C330.207 299.771 328.871 301.759 328.2 302.662C327.529 303.565 327.204 304.152 327.475 304.011Z" fill="#A3C896"/>
<path d="M318.714 253.677C319.517 254.245 319.537 254.356 320.083 257.222C320.554 259.826 320.721 260.301 321.42 261.186C322.395 262.411 323.22 262.952 324.624 263.272C325.639 263.525 326.575 263.494 332.172 263.032C333.682 262.897 335.034 262.928 335.876 263.12C336.633 263.282 337.216 263.383 337.208 263.339C337.2 263.294 336.945 262.927 336.626 262.502C336.311 262.099 335.385 260.704 334.584 259.401C331.958 255.303 330.712 254.218 327.829 253.614C326.433 253.338 322.468 253.297 321.035 253.556C320.644 253.627 320.174 253.413 319.596 252.897C318.693 252.072 318.495 252.016 318.076 252.529C317.723 252.96 317.757 253 318.714 253.677Z" fill="#A3C896"/>
<path d="M372.69 361.652C373.413 362.671 376.339 363.52 378.086 363.204C378.555 363.119 379.039 363.261 379.472 363.574C380.03 363.978 380.224 364.012 380.449 363.765C380.669 363.495 380.619 363.366 380.22 363.094C379.82 362.821 379.619 362.306 379.329 360.704C378.927 358.478 378.579 357.897 377.151 357.145C376.312 356.676 371.664 354.943 371.403 354.99C371.351 355 371.47 355.208 371.674 355.447C371.913 355.725 372.086 356.384 372.155 357.359C372.312 360.158 372.447 361.352 372.69 361.652Z" fill="#A3C896"/>
<path d="M413.92 329.598C414.989 329.404 417.071 329.901 419.769 330.975C421.191 331.545 422.969 332.143 423.729 332.327C425.556 332.755 427.589 332.387 429.151 331.346C430.301 330.563 432.517 327.932 433.398 326.256C433.897 325.292 434.352 324.98 435.603 324.754C436.203 324.645 436.317 324.533 436.233 324.065C436.152 323.62 436.002 323.532 435.506 323.622C435.141 323.688 434.584 323.881 434.217 324.085C433.676 324.367 433.347 324.335 431.907 323.814C427.728 322.295 424.423 322.181 421.839 323.522C421.097 323.886 419.085 325.261 417.403 326.531C415.721 327.801 414.098 328.945 413.801 329.09C413.047 329.388 413.138 329.739 413.92 329.598Z" fill="#A3C896"/>
<path d="M377.34 186.078C377.458 185.084 378.058 183.788 379.311 181.81C380.725 179.582 381.164 178.571 381.271 177.284C381.412 175.73 381.051 174.351 379.997 172.366C379.543 171.493 378.361 169.798 377.564 168.85L377.09 168.277L377.029 167.559C376.994 167.06 377.006 166.833 377.086 166.827C377.15 166.823 377.576 166.842 378.031 166.878C379.372 166.955 380.651 166.8 381.675 166.42C383.757 165.629 384.571 164.732 389.212 158.05C390.215 156.602 391.133 155.279 391.264 155.107L391.481 154.786L391.883 155.223L392.285 155.66L392.367 156.502C392.423 157.02 392.647 158.16 392.951 159.469C393.42 161.483 393.472 161.637 393.844 162.364C394.722 164.083 395.554 164.833 398.285 166.416C399.361 167.027 400.48 167.722 400.774 167.937C401.07 168.163 401.325 168.316 401.335 168.29C401.345 168.264 401.249 168.027 401.11 167.776C400.725 167.028 400.264 164.906 400.037 162.776C399.699 159.682 399.415 158.532 398.721 157.396C397.763 155.861 395.859 155.006 393.465 155.044C393.111 155.055 392.746 155.058 392.646 155.046C392.548 155.045 392.337 154.87 392.172 154.649L391.87 154.259L392.735 153.161C395.151 150.11 397.53 148.189 401.147 146.357C403.207 145.3 406.2 144.38 408.19 144.177C409.736 144.018 409.628 143.972 409.525 144.786C409.48 145.151 409.409 145.474 409.361 145.509C409.317 145.531 408.894 145.771 408.424 146.021C406.96 146.81 406.163 147.609 405.645 148.838C405.168 149.928 405.089 150.949 405.229 154.137C405.29 155.55 405.335 157.038 405.319 157.455C405.29 158.24 405.318 158.328 405.492 157.922C405.811 157.199 406.734 156.489 408.322 155.777C409.967 155.029 410.664 154.431 411.043 153.411C411.306 152.724 411.38 151.787 411.264 150.729C411.164 149.808 410.577 147.562 410.144 146.435L409.875 145.731L410.096 144.901L410.32 144.083L411.188 144.152C413.83 144.375 416.567 145.497 419.083 147.377C419.533 147.709 420.12 148.103 420.383 148.255C421.546 148.928 423.06 149.402 424.248 149.479C424.602 149.503 424.9 149.528 424.911 149.538C424.921 149.547 424.95 149.741 424.986 149.968C425.034 150.311 424.998 150.437 424.788 150.722C423.8 151.99 423.129 153.361 422.944 154.454C422.73 155.766 422.923 156.983 423.756 159.621C424.005 160.412 424.322 161.53 424.457 162.112C424.668 162.983 424.717 163.125 424.752 162.928C424.866 162.229 425.44 161.069 426.057 160.265C427.191 158.822 427.58 158.225 427.786 157.61C428.398 155.876 427.842 153.905 425.933 151.105C425.489 150.453 425.453 150.367 425.441 149.969L425.43 149.535L426.508 149.214C427.74 148.856 427.922 148.767 429.573 147.592C431.139 146.473 432.065 145.668 434.396 143.369C435.464 142.306 436.486 141.326 436.676 141.163C437.014 140.872 437.014 140.872 437.354 141.077C437.673 141.262 437.712 141.324 437.917 141.996C438.199 142.897 438.613 143.875 438.933 144.378C439.545 145.333 440.096 145.677 441.669 146.054C442.212 146.188 442.854 146.368 443.091 146.443L443.515 146.592L443.263 146.238C442.899 145.721 442.702 145.224 442.256 143.688C441.768 142.009 441.481 141.403 440.955 140.923C440.399 140.416 439.836 140.334 438.652 140.621C437.859 140.806 437.684 140.823 437.545 140.678C437.396 140.524 437.442 140.478 438.154 139.911C439.977 138.461 441.868 137.515 442.965 137.519C443.468 137.52 444.486 137.743 444.445 137.847C444.435 137.873 444.235 137.884 444.003 137.867C443.209 137.804 442.997 138.078 442.414 139.865L442.203 140.527L442.511 140.456C442.68 140.416 443.096 140.426 443.443 140.487C443.832 140.55 444.16 140.532 444.307 140.463C444.637 140.28 444.854 139.64 444.852 138.862C444.853 138.484 444.896 138.179 444.96 138.14C445.219 137.998 446.68 139.321 447.541 140.478L447.954 141.03L447.77 141.392C447.583 141.742 447.578 141.755 446.91 141.78C445.729 141.831 444.952 142.295 444.53 143.207C444.385 143.523 444.131 144.491 443.936 145.504C443.746 146.468 443.556 147.291 443.52 147.346C443.351 147.598 443.531 147.603 443.895 147.353C444.27 147.113 444.393 147.084 445.464 147.083C447.126 147.074 447.696 146.765 447.965 145.723C448.115 145.145 448.134 143.619 448 142.73C447.919 142.171 447.923 142.017 448.069 141.77L448.243 141.47L448.622 142.125C449.147 143.018 449.902 144.624 450.38 145.845L450.769 146.852L450.621 147.123C450.488 147.354 450.37 147.405 449.707 147.524C448.446 147.758 448.19 148.089 447.813 149.993C447.682 150.684 447.519 151.383 447.468 151.548L447.366 151.843L447.787 151.662C448.016 151.562 448.593 151.463 449.074 151.434C449.546 151.407 450.063 151.322 450.206 151.242C450.768 150.934 450.988 149.927 450.822 148.409C450.772 147.913 450.774 147.606 450.84 147.543C450.902 147.494 450.968 147.466 450.989 147.485C451.061 147.551 451.439 149.28 451.679 150.663C452.061 152.828 452.621 154.538 453.286 155.586C453.39 155.751 453.71 156.184 453.988 156.544C454.491 157.205 454.491 157.205 454.552 157.816C454.737 159.661 455.13 160.301 456.715 161.36C457.035 161.58 457.359 161.823 457.444 161.91C457.684 162.173 457.727 162.08 457.551 161.673C457.419 161.385 457.357 161.01 457.272 160.121C457.11 158.307 456.959 157.87 456.326 157.38C456.061 157.183 455.222 156.929 454.799 156.922C454.596 156.922 453.783 155.766 453.354 154.863C453.054 154.236 452.948 153.884 452.666 152.604C452.481 151.774 452.327 150.937 452.322 150.738C452.318 150.338 452.357 150.4 452.704 151.298C452.991 152.045 453.316 152.5 453.71 152.727C453.98 152.877 454.075 152.867 454.575 152.679C454.878 152.55 455.363 152.402 455.648 152.336C455.995 152.255 456.131 152.176 456.082 152.105C456.035 152.045 455.667 151.576 455.264 151.068C454.336 149.904 454.107 149.792 453.167 150.01C452.798 150.096 452.433 150.134 452.358 150.092C452.237 150.026 452.196 149.812 452.002 148.488C451.889 147.654 451.69 146.52 451.56 145.96L451.334 144.951L451.599 145.397C451.93 145.945 452.337 146.264 452.799 146.333C453.085 146.373 453.336 146.302 454.116 145.956C455.012 145.547 455.405 145.456 455.788 145.567C456.006 145.635 454.033 143.12 453.536 142.693C452.941 142.195 452.381 142.124 451.413 142.432C450.654 142.691 450.654 142.691 450.381 142.424C450.223 142.272 450.084 142.092 450.063 142.003C449.975 141.622 449.401 140.375 449.003 139.713C448.766 139.32 448.33 138.702 448.036 138.345C447.742 137.989 447.608 137.796 447.739 137.907C448.151 138.248 448.884 138.502 449.223 138.423C449.685 138.316 449.892 138.02 450.461 136.661C450.803 135.826 451.056 135.378 451.259 135.201C451.435 135.054 451.499 134.945 451.422 134.927C451.355 134.919 450.785 134.769 450.17 134.605C448.676 134.221 448.27 134.256 447.733 134.841C447.507 135.094 447.195 135.603 447.022 135.974C446.652 136.791 446.467 136.87 445.716 136.466C445.049 136.114 444.206 135.874 443.466 135.834L442.898 135.8L443.265 135.633C443.821 135.373 444.321 134.868 444.471 134.396C444.665 133.797 444.637 133.049 444.352 131.404C444.083 129.827 444.045 129.423 444.149 128.785C444.184 128.553 444.209 128.347 444.201 128.313C444.196 128.291 444.081 128.388 443.956 128.547C443.82 128.697 443.297 129.172 442.795 129.596C441.475 130.693 441.14 131.278 441.051 132.573C441.015 133.148 441.135 134.677 441.262 135.225C441.332 135.527 441.305 135.652 441.138 135.915C441.023 136.083 440.849 136.241 440.757 136.263C440.656 136.286 440.341 136.466 440.051 136.651C438.402 137.73 437.115 138.619 435.854 139.55C433.516 141.261 432.139 142.254 432.108 142.225C432.098 142.216 432.09 142.076 432.092 141.911C432.096 141.686 432.24 141.499 432.77 141.022C434.095 139.841 435.043 138.228 435.158 136.975C435.3 135.385 434.945 134.311 433.227 131.183C432.38 129.634 432.09 128.947 431.843 127.884L431.637 126.999L431.469 127.569C431.373 127.887 430.914 129.161 430.44 130.404C429.257 133.522 429.131 134.448 429.615 136.529C429.919 137.803 430.427 139.077 431.3 140.703L431.661 141.386L431.586 141.969C431.538 142.287 431.457 142.601 431.401 142.673C431.255 142.849 429.854 143.599 429.041 143.941C428.171 144.321 426.315 144.752 425.459 144.774C424.162 144.816 422.958 144.353 421.174 143.104C419.653 142.042 419.756 142.172 419.619 141.236L419.507 140.437L419.842 139.887C420.427 138.913 420.998 137.318 421.085 136.401C421.157 135.7 421.141 135.456 420.985 134.784C420.738 133.721 420.31 133.03 418.77 131.23C417.554 129.802 417.071 129.088 416.753 128.242C416.587 127.809 416.584 127.798 416.57 128.084C416.56 128.252 416.543 128.598 416.531 128.86C416.516 129.111 416.381 130.204 416.243 131.286C416.094 132.359 415.972 133.508 415.973 133.826C415.972 134.629 416.189 135.805 416.471 136.495C416.802 137.326 417.742 138.818 418.474 139.662L419.09 140.392L419.125 140.997L419.161 141.602L418.017 140.7C416.398 139.425 415.304 138.736 414.162 138.258C412.106 137.415 409.235 136.974 406.574 137.085C405.408 137.132 403.166 137.441 402.331 137.659C401.995 137.749 401.72 137.789 401.72 137.754C401.725 137.705 401.694 137.536 401.655 137.368C401.603 137.108 401.664 136.917 402.024 136.303C402.27 135.892 402.673 135.008 402.92 134.325C403.507 132.761 403.625 131.837 403.403 130.638C403.126 129.169 402.574 128.224 400.883 126.329C400.38 125.773 399.738 125.002 399.465 124.629C398.987 124.009 398.37 122.89 398.276 122.487C398.201 122.163 398.122 122.346 398.1 122.918C398.091 123.226 397.946 124.487 397.78 125.729C397.619 126.958 397.464 128.315 397.437 128.722C397.285 131.318 398.155 133.486 400.444 136.21C401.14 137.039 401.143 137.05 401.167 137.505L401.184 137.961L399.844 138.485C397.314 139.474 395.019 140.81 392.876 142.558C391.149 143.963 390.027 145.073 388.263 147.158C384.251 151.866 383.428 152.73 381.944 153.712C380.959 154.365 380.931 154.384 380.848 154.026C380.798 153.813 380.887 153.568 381.255 152.916C381.894 151.789 382.621 149.885 382.775 148.977C383.096 147.038 382.636 145.27 381.398 143.646C381.099 143.268 380.366 142.388 379.771 141.713C378.237 139.969 377.651 139.091 377.216 137.883L377.058 137.448L376.954 138.675C376.897 139.337 376.721 140.853 376.56 142.011C376.41 143.178 376.27 144.497 376.261 144.947C376.189 147.641 377.229 150.054 379.665 152.92C380.258 153.62 380.297 153.682 380.324 154.077C380.343 154.473 380.333 154.499 379.945 154.684C379.491 154.895 378.281 155 377.528 154.903C377.009 154.835 376.243 154.612 373.993 153.873C371.756 153.155 370.779 152.969 369.482 153.047C368.796 153.1 368.495 153.17 367.967 153.411C366.902 153.894 366.444 154.366 365.295 156.096C363.858 158.294 363.448 159.675 363.817 161.229C363.984 161.945 366.622 172.173 366.835 172.914L366.941 173.302L367.113 172.507C367.339 171.452 367.938 169.838 368.413 169.02C369.505 167.114 371.005 166.023 372.487 166.044C372.798 166.054 373.664 166.183 374.415 166.339C375.163 166.483 375.87 166.626 375.988 166.645C376.165 166.675 376.227 166.767 376.339 167.177C376.599 168.084 376.584 168.335 376.205 168.907C374.617 171.364 373.808 173.888 373.925 176.102C373.982 177.327 374.551 179.354 375.578 182.029C376.042 183.219 376.586 184.756 376.801 185.437C377.006 186.109 377.2 186.665 377.224 186.66C377.247 186.655 377.3 186.394 377.34 186.078Z" fill="#A3C896"/>
<path d="M415.021 173.696C415.783 173.236 416.574 172.203 417.353 170.665L417.777 169.835L418.319 169.827C418.971 169.805 419.081 169.72 418.985 169.306C418.915 169.004 418.876 168.978 418.563 168.991C418.378 168.999 418.09 169.054 417.929 169.127C417.631 169.243 417.631 169.243 416.92 168.453C415.188 166.52 413.607 165.59 412.261 165.703C411.624 165.756 411.065 166.04 409.506 167.122C408.814 167.601 407.96 168.154 407.606 168.342L406.975 168.701L407.531 168.926C408.231 169.211 408.954 169.845 410.341 171.41C410.944 172.084 411.684 172.856 411.99 173.127C413.034 174.052 414.095 174.253 415.021 173.696Z" fill="#A3C896"/>
<path d="M444.154 165.613C444.087 165.499 443.934 165.051 443.818 164.618C443.62 163.944 443.578 163.553 443.486 161.864C443.31 158.732 442.99 157.673 441.945 156.737C441.391 156.24 440.148 155.751 439.136 155.62L438.375 155.526L438.014 154.985C437.647 154.421 437.619 154.404 437.445 154.563C437.278 154.719 437.426 155.11 437.805 155.517L438.16 155.894L438.246 157.066C438.345 158.47 438.736 160.29 439.121 161.109C439.641 162.227 440.164 162.766 441.979 164.043C442.561 164.45 443.31 165.019 443.653 165.305C443.995 165.591 444.214 165.729 444.154 165.613Z" fill="#A3C896"/>
<path d="M426.721 169.513C426.893 169.166 426.931 169.157 427.922 168.915C428.823 168.706 428.985 168.633 429.272 168.33C429.669 167.908 429.83 167.552 429.892 166.947C429.945 166.51 429.9 166.108 429.536 163.703C429.433 163.055 429.396 162.474 429.433 162.111C429.463 161.786 429.478 161.535 429.462 161.538C429.447 161.542 429.327 161.652 429.188 161.791C429.058 161.927 428.599 162.329 428.168 162.677C426.818 163.816 426.48 164.355 426.371 165.595C426.324 166.196 426.452 167.9 426.595 168.516C426.634 168.684 426.576 168.886 426.415 169.136C426.156 169.526 426.144 169.612 426.339 169.79C426.504 169.941 426.517 169.926 426.721 169.513Z" fill="#A3C896"/>
<path d="M462.852 146.025C463.185 145.711 463.379 144.451 463.204 143.701C463.158 143.5 463.19 143.292 463.285 143.105C463.407 142.864 463.412 142.78 463.317 142.684C463.214 142.59 463.17 142.612 463.089 142.785C463.007 142.957 462.833 143.045 462.278 143.174C461.508 143.353 461.316 143.504 461.102 144.12C460.966 144.481 460.523 146.484 460.549 146.596C460.554 146.618 460.623 146.567 460.7 146.478C460.79 146.374 461.015 146.298 461.357 146.266C462.338 146.191 462.754 146.13 462.852 146.025Z" fill="#A3C896"/>
<path d="M450.065 128.389C449.958 127.93 450.058 127.034 450.34 125.872C450.489 125.259 450.636 124.493 450.674 124.166C450.759 123.379 450.556 122.506 450.133 121.838C449.815 121.346 448.808 120.4 448.185 120.026C447.827 119.814 447.701 119.62 447.576 119.082C447.516 118.825 447.472 118.776 447.31 118.814C447.156 118.85 447.131 118.914 447.18 119.127C447.217 119.284 447.305 119.523 447.39 119.68C447.509 119.912 447.509 120.053 447.378 120.674C446.992 122.474 447.071 123.895 447.637 125.002C447.792 125.32 448.35 126.181 448.858 126.9C449.366 127.62 449.828 128.314 449.89 128.442C450.022 128.765 450.143 128.725 450.065 128.389Z" fill="#A3C896"/>
<path d="M345.601 159.146C344.857 158.476 343.552 157.897 341.305 157.235C338.773 156.491 337.777 156.021 336.849 155.123C335.717 154.047 335.08 152.772 334.565 150.585C334.331 149.629 334.103 147.575 334.077 146.338L334.056 145.593L333.629 145.014C333.326 144.615 333.168 144.453 333.103 144.5C333.053 144.54 332.745 144.835 332.426 145.162C331.469 146.104 330.404 146.83 329.384 147.219C327.297 147.997 326.094 147.859 318.199 145.892C316.49 145.464 314.928 145.075 314.717 145.031L314.341 144.933L314.327 145.526L314.313 146.12L314.806 146.808C315.106 147.234 315.688 148.239 316.322 149.424C317.298 151.248 317.359 151.397 317.559 152.189C318.031 154.061 317.9 155.173 316.89 158.164C316.483 159.332 316.1 160.593 316.021 160.948C315.947 161.313 315.856 161.596 315.831 161.583C315.807 161.571 315.722 161.329 315.662 161.049C315.458 160.232 314.406 158.332 313.173 156.581C311.388 154.031 310.844 152.98 310.617 151.668C310.326 149.882 311.194 147.984 313.019 146.435C313.293 146.21 313.569 145.971 313.637 145.896C313.709 145.831 313.753 145.56 313.731 145.285L313.701 144.793L312.327 144.537C308.499 143.836 305.444 143.958 301.516 144.965C299.27 145.527 296.413 146.808 294.782 147.967C293.515 148.867 293.566 148.761 294.18 149.306C294.454 149.55 294.721 149.746 294.78 149.74C294.828 149.728 295.304 149.63 295.822 149.509C297.444 149.137 298.569 149.212 299.769 149.795C300.846 150.301 301.579 151.016 303.574 153.506C304.46 154.609 305.407 155.758 305.694 156.06C306.233 156.632 306.269 156.717 305.871 156.526C305.155 156.192 303.993 156.267 302.329 156.778C300.6 157.3 299.681 157.309 298.723 156.792C298.073 156.449 297.399 155.793 296.789 154.921C296.258 154.162 295.219 152.086 294.802 150.954L294.54 150.247L293.827 149.768L293.119 149.3L292.511 149.925C290.672 151.834 289.353 154.481 288.7 157.553C288.58 158.1 288.399 158.783 288.301 159.07C287.87 160.343 287.043 161.698 286.202 162.539C285.951 162.79 285.743 163.006 285.741 163.019C285.74 163.033 285.846 163.198 285.968 163.393C286.159 163.682 286.269 163.754 286.614 163.83C288.193 164.132 289.602 164.72 290.46 165.421C291.487 166.266 292.143 167.309 293.256 169.841C293.59 170.601 294.089 171.65 294.37 172.177C294.786 172.971 294.843 173.11 294.686 172.985C294.14 172.535 292.944 172.041 291.95 171.843C290.146 171.505 289.46 171.312 288.9 170.986C287.296 170.084 286.415 168.236 286.006 164.872C285.91 164.089 285.88 164 285.626 163.693L285.349 163.359L284.327 163.828C283.165 164.372 282.969 164.424 280.953 164.63C279.037 164.82 277.811 164.825 274.542 164.632C273.039 164.537 271.623 164.473 271.374 164.476C270.928 164.48 270.928 164.48 270.807 164.858C270.689 165.207 270.7 165.279 270.989 165.92C271.371 166.784 271.704 167.792 271.795 168.381C271.964 169.503 271.777 170.124 270.842 171.445C270.522 171.903 270.158 172.463 270.029 172.675L269.808 173.067L269.765 172.634C269.698 172.005 269.518 171.502 268.842 170.052C268.101 168.468 267.918 167.823 267.997 167.116C268.081 166.368 268.451 165.935 269.53 165.371C270.248 164.987 270.391 164.885 270.4 164.684C270.411 164.47 270.346 164.466 269.437 164.509C267.11 164.62 265.064 165.154 264.242 165.88C263.864 166.213 263.246 167.052 263.345 167.103C263.37 167.116 263.528 166.992 263.69 166.827C264.246 166.256 264.586 166.322 266.202 167.281L266.798 167.64L266.519 167.79C266.366 167.872 266.059 168.153 265.838 168.428C265.588 168.731 265.329 168.934 265.173 168.979C264.804 169.059 264.219 168.72 263.708 168.134C263.458 167.85 263.225 167.649 263.151 167.663C262.862 167.726 262.636 169.684 262.75 171.122L262.804 171.809L263.181 171.96C263.552 172.1 263.564 172.107 264.083 171.686C265.005 170.945 265.895 170.781 266.813 171.19C267.132 171.332 267.96 171.892 268.774 172.525C269.553 173.125 270.238 173.619 270.302 173.637C270.594 173.715 270.463 173.837 270.024 173.889C269.584 173.955 269.473 174.015 268.666 174.72C267.41 175.809 266.778 175.952 265.889 175.346C265.395 175.01 264.376 173.875 263.89 173.118C263.583 172.644 263.477 172.531 263.205 172.442L262.877 172.331L263.023 173.074C263.217 174.09 263.708 175.796 264.153 177.03L264.525 178.043L264.814 178.149C265.067 178.235 265.189 178.196 265.766 177.848C266.868 177.193 267.279 177.274 268.818 178.457C269.372 178.89 269.954 179.308 270.102 179.399L270.373 179.554L269.937 179.695C269.699 179.771 269.2 180.077 268.819 180.372C268.446 180.663 268.002 180.939 267.841 180.973C267.216 181.112 266.386 180.5 265.51 179.249C265.222 178.843 265.018 178.613 264.927 178.61C264.848 178.613 264.779 178.636 264.776 178.664C264.765 178.761 265.621 180.31 266.352 181.509C267.492 183.388 268.198 185.043 268.388 186.271C268.419 186.463 268.463 186.999 268.491 187.453C268.549 188.282 268.549 188.282 268.906 188.782C269.982 190.291 270.109 191.031 269.614 192.873C269.52 193.249 269.436 193.646 269.429 193.767C269.422 194.122 269.328 194.081 269.192 193.659C269.101 193.356 268.902 193.032 268.38 192.308C267.306 190.837 267.131 190.409 267.284 189.623C267.354 189.3 267.817 188.557 268.131 188.272C268.283 188.138 268.133 186.733 267.86 185.771C267.673 185.102 267.521 184.767 266.889 183.619C266.481 182.873 266.045 182.142 265.918 181.989C265.657 181.685 265.669 181.757 266 182.662C266.276 183.413 266.332 183.97 266.185 184.4C266.081 184.69 266.002 184.745 265.503 184.934C265.19 185.037 264.727 185.245 264.469 185.383C264.155 185.551 264.001 185.581 263.991 185.495C263.987 185.42 263.955 184.824 263.923 184.177C263.853 182.689 263.952 182.454 264.802 181.999C265.137 181.82 265.436 181.608 265.465 181.527C265.512 181.398 265.402 181.209 264.676 180.086C264.211 179.384 263.613 178.4 263.342 177.894L262.847 176.986L262.941 177.496C263.054 178.126 262.957 178.634 262.655 178.991C262.467 179.209 262.231 179.322 261.416 179.575C260.474 179.858 260.118 180.048 259.903 180.385C259.783 180.579 259.61 177.388 259.702 176.739C259.821 175.972 260.196 175.55 261.126 175.144C261.869 174.838 261.869 174.838 261.898 174.457C261.916 174.239 261.902 174.012 261.859 173.931C261.675 173.587 261.284 172.271 261.147 171.51C261.066 171.058 260.987 170.306 260.973 169.844C260.959 169.382 260.933 169.149 260.907 169.319C260.822 169.847 260.438 170.521 260.131 170.685C259.713 170.909 259.362 170.823 258.039 170.176C257.232 169.774 256.746 169.603 256.477 169.604C256.247 169.61 256.127 169.57 256.173 169.506C256.218 169.455 256.549 168.966 256.903 168.438C257.773 167.164 258.101 166.924 258.892 167.009C259.228 167.051 259.798 167.228 260.173 167.392C260.99 167.763 261.18 167.7 261.48 166.902C261.749 166.198 262.224 165.461 262.754 164.943L263.16 164.544L262.773 164.659C262.184 164.831 261.475 164.78 261.051 164.525C260.511 164.202 260.038 163.62 259.169 162.196C258.332 160.832 258.093 160.504 257.595 160.093C257.416 159.941 257.261 159.803 257.244 159.772C257.234 159.752 257.385 159.749 257.584 159.786C257.784 159.809 258.491 159.822 259.148 159.81C260.863 159.765 261.501 159.984 262.421 160.899C262.828 161.307 263.745 162.537 264.011 163.033C264.157 163.307 264.26 163.382 264.558 163.47C264.756 163.521 264.991 163.525 265.075 163.48C265.166 163.432 265.521 163.359 265.861 163.307C267.813 163.032 269.366 162.852 270.928 162.721C273.815 162.467 275.504 162.306 275.509 162.264C275.51 162.25 275.424 162.14 275.314 162.017C275.162 161.85 274.931 161.804 274.218 161.795C272.443 161.78 270.667 161.193 269.755 160.325C268.6 159.223 268.159 158.182 267.39 154.697C267.006 152.974 266.771 152.266 266.256 151.303L265.828 150.503L266.329 150.821C266.611 150.996 267.796 151.652 268.972 152.274C271.917 153.839 272.622 154.453 273.63 156.337C274.24 157.496 274.699 158.788 275.113 160.586L275.291 161.338L275.733 161.727C275.978 161.935 276.246 162.117 276.336 162.134C276.561 162.17 278.109 161.811 278.947 161.533C279.851 161.245 281.531 160.346 282.189 159.798C283.192 158.975 283.792 157.833 284.311 155.718C284.755 153.917 284.763 154.082 284.249 153.289L283.807 152.613L283.193 152.421C282.111 152.074 280.63 151.25 279.96 150.618C279.443 150.139 279.295 149.945 278.97 149.337C278.455 148.374 278.322 147.573 278.292 145.204C278.266 143.328 278.159 142.473 277.841 141.627C277.68 141.192 277.674 141.182 277.874 141.388C277.992 141.507 278.233 141.756 278.415 141.946C278.591 142.125 279.414 142.858 280.231 143.58C281.049 144.289 281.899 145.073 282.108 145.313C282.637 145.916 283.249 146.943 283.491 147.648C283.79 148.491 284.067 150.233 284.073 151.35L284.091 152.305L284.463 152.783L284.835 153.262L285.101 151.83C285.479 149.804 285.847 148.564 286.391 147.452C287.381 145.463 289.249 143.239 291.324 141.569C292.232 140.835 294.122 139.59 294.893 139.204C295.205 139.05 295.438 138.899 295.415 138.872C295.379 138.839 295.291 138.691 295.21 138.539C295.078 138.31 294.906 138.206 294.23 137.982C293.774 137.834 292.888 137.435 292.252 137.085C290.781 136.295 290.083 135.678 289.46 134.63C288.699 133.343 288.492 132.268 288.515 129.728C288.526 128.979 288.501 127.976 288.461 127.516C288.411 126.734 288.138 125.486 287.943 125.121C287.785 124.828 287.966 124.914 288.359 125.329C288.569 125.555 289.509 126.407 290.453 127.232C291.384 128.05 292.395 128.969 292.684 129.257C294.508 131.109 295.284 133.313 295.357 136.87C295.38 137.953 295.386 137.963 295.667 138.321L295.955 138.675L297.307 138.186C299.862 137.262 302.469 136.754 305.233 136.657C307.458 136.574 309.033 136.67 311.734 137.075C317.854 137.971 319.042 138.079 320.806 137.839C321.977 137.682 322.01 137.677 321.837 137.353C321.734 137.16 321.505 137.035 320.799 136.787C319.575 136.36 317.775 135.408 317.06 134.826C315.541 133.579 314.721 131.946 314.582 129.909C314.558 129.427 314.529 128.283 314.531 127.383C314.536 125.061 314.397 124.014 313.928 122.819L313.76 122.387L314.648 123.242C315.127 123.702 316.258 124.726 317.142 125.491C318.025 126.27 318.999 127.169 319.303 127.502C321.133 129.481 321.941 131.981 321.998 135.742C322.013 136.659 322.025 136.731 322.265 137.046C322.512 137.356 322.536 137.369 322.949 137.253C323.43 137.113 324.409 136.394 324.912 135.825C325.257 135.432 325.687 134.759 326.892 132.72C328.101 130.705 328.713 129.922 329.74 129.125C330.291 128.713 330.563 128.567 331.119 128.4C332.238 128.062 332.894 128.115 334.898 128.659C337.428 129.365 338.646 130.133 339.392 131.545C339.739 132.194 344.497 141.624 344.825 142.322L345.001 142.684L344.347 142.199C343.482 141.555 341.968 140.736 341.071 140.434C338.994 139.72 337.147 139.887 336.046 140.88C335.819 141.093 335.252 141.761 334.79 142.373C334.323 142.974 333.885 143.547 333.809 143.64C333.695 143.779 333.709 143.889 333.896 144.271C334.299 145.125 334.475 145.304 335.137 145.484C337.951 146.285 340.223 147.65 341.594 149.392C342.359 150.352 343.267 152.251 344.257 154.94C344.692 156.14 345.296 157.654 345.583 158.308C345.872 158.949 346.093 159.495 346.072 159.507C346.051 159.518 345.84 159.357 345.601 159.146Z" fill="#A3C896"/>
<path d="M309.102 174.67C308.225 174.825 306.95 174.57 305.35 173.927L304.484 173.582L304.071 173.933C303.566 174.347 303.428 174.356 303.227 173.981C303.081 173.707 303.092 173.662 303.337 173.466C303.481 173.35 303.734 173.202 303.903 173.15C304.204 173.041 304.204 173.041 304.218 171.978C304.247 169.383 304.822 167.642 305.908 166.839C306.423 166.46 307.03 166.304 308.916 166.091C309.752 165.995 310.759 165.847 311.149 165.756L311.86 165.61L311.591 166.145C311.253 166.821 311.126 167.775 311.115 169.866C311.105 170.77 311.058 171.838 311.006 172.244C310.831 173.627 310.165 174.478 309.102 174.67Z" fill="#A3C896"/>
<path d="M281.864 187.793C281.84 187.663 281.659 187.225 281.462 186.822C281.166 186.185 280.94 185.863 279.896 184.532C277.964 182.06 277.507 181.054 277.676 179.661C277.765 178.922 278.377 177.735 279.052 176.97L279.562 176.397L279.477 175.752C279.381 175.087 279.391 175.055 279.627 175.06C279.855 175.068 280.002 175.459 279.985 176.015L279.967 176.533L280.674 177.47C281.525 178.592 282.431 180.218 282.681 181.088C283.027 182.271 282.989 183.021 282.465 185.178C282.296 185.868 282.108 186.789 282.039 187.23C281.97 187.671 281.896 187.919 281.864 187.793Z" fill="#A3C896"/>
<path d="M297.545 179.235C297.188 179.088 297.153 179.106 296.248 179.577C295.433 180.014 295.263 180.065 294.848 180.027C294.271 179.971 293.915 179.809 293.47 179.396C293.142 179.102 292.911 178.769 291.6 176.721C291.249 176.166 290.894 175.704 290.627 175.456C290.39 175.231 290.214 175.052 290.228 175.045C290.242 175.037 290.405 175.041 290.6 175.054C290.788 175.07 291.398 175.07 291.951 175.048C293.718 175.015 294.327 175.197 295.227 176.058C295.658 176.479 296.685 177.845 296.983 178.402C297.064 178.554 297.242 178.668 297.527 178.75C297.979 178.873 298.045 178.929 298.015 179.192C297.991 179.414 297.971 179.411 297.545 179.235Z" fill="#A3C896"/>
<path d="M254.892 185.385C254.435 185.368 253.459 184.549 253.096 183.87C252.998 183.687 252.836 183.552 252.642 183.474C252.391 183.374 252.332 183.314 252.341 183.179C252.356 183.041 252.403 183.028 252.578 183.104C252.754 183.18 252.943 183.131 253.445 182.862C254.142 182.489 254.386 182.476 254.953 182.798C255.293 182.981 256.946 184.195 257 184.296C257.011 184.316 256.925 184.323 256.809 184.307C256.674 184.288 256.454 184.38 256.175 184.581C255.388 185.171 255.035 185.4 254.892 185.385Z" fill="#A3C896"/>
<path d="M252.885 163.694C252.663 163.278 251.997 162.67 251.019 161.982C250.502 161.619 249.887 161.14 249.643 160.919C249.061 160.384 248.638 159.593 248.516 158.812C248.43 158.232 248.565 156.857 248.787 156.165C248.916 155.77 248.883 155.54 248.623 155.054C248.498 154.821 248.499 154.756 248.645 154.677C248.785 154.603 248.847 154.635 248.95 154.827C249.025 154.969 249.117 155.207 249.156 155.381C249.22 155.634 249.313 155.741 249.821 156.12C251.297 157.22 252.174 158.341 252.478 159.546C252.571 159.887 252.72 160.903 252.811 161.779C252.903 162.655 253.014 163.481 253.051 163.618C253.165 163.948 253.048 163.998 252.885 163.694Z" fill="#A3C896"/>
</svg>
