<svg width="100" height="100" viewBox="0 0 100 100" fill="none" xmlns="http://www.w3.org/2000/svg">
<path d="M50 100C77.6142 100 100 77.6142 100 50C100 22.3858 77.6142 0 50 0C22.3858 0 0 22.3858 0 50C0 77.6142 22.3858 100 50 100Z" fill="#3F3F3F"/>
<path d="M50 79.0124C66.0231 79.0124 79.0124 66.0231 79.0124 50C79.0124 33.9769 66.0231 20.9876 50 20.9876C33.9769 20.9876 20.9876 33.9769 20.9876 50C20.9876 66.0231 33.9769 79.0124 50 79.0124Z" fill="#96A092" fill-opacity="0.26"/>
<path d="M50.1028 6.37878C44.7056 6.37878 40.3292 25.9548 40.3292 50.1032C40.3292 74.2516 44.7056 93.8276 50.1028 93.8276C55.5 93.8276 59.8764 74.2516 59.8764 50.1032C59.8764 25.9548 55.5 6.37878 50.1028 6.37878ZM50.7776 91.36C50.1604 92.1832 49.5432 91.5656 49.5432 91.5656C47.0576 88.6856 45.8148 83.3352 45.8148 83.3352C41.4672 69.3436 42.502 39.3024 42.502 39.3024C44.5452 15.4528 48.262 9.81878 49.5268 8.56798C49.656 8.44033 49.826 8.36232 50.007 8.34768C50.188 8.33305 50.3684 8.38273 50.5164 8.48798C52.3516 9.78838 53.8908 15.2268 53.8908 15.2268C58.436 32.0992 58.0244 47.9428 58.0244 47.9428C58.436 61.7288 55.7468 77.1608 55.7468 77.1608C53.6768 88.8888 50.7776 91.36 50.7776 91.36Z" fill="#799D6C"/>
<path d="M88.0288 28.3436C85.3416 23.6604 66.1852 29.6068 45.2288 41.6236C24.2724 53.6404 9.49001 67.1792 12.1752 71.8604C14.8604 76.5416 34.0188 70.5972 54.9752 58.5804C75.9316 46.5636 90.714 33.0248 88.0288 28.3436V28.3436ZM14.6544 71.218C13.6256 71.0884 13.858 70.2428 13.858 70.2428C15.12 66.6544 19.136 62.9136 19.136 62.9136C29.1132 52.1792 55.6876 38.1276 55.6876 38.1276C77.3892 28.0308 84.13 28.4568 85.84 28.9276C86.0155 28.9766 86.168 29.0861 86.2705 29.2368C86.373 29.3875 86.4189 29.5696 86.4 29.7508C86.1944 31.9908 82.2332 36.0308 82.2332 36.0308C69.8684 48.3744 55.92 55.9032 55.92 55.9032C44.1668 63.1232 29.4428 68.4668 29.4428 68.4668C18.2392 72.504 14.6548 71.218 14.6548 71.218H14.6544Z" fill="#799D6C"/>
<path d="M87.934 72.0164C90.642 67.3456 75.8968 53.7448 55.014 41.6376C34.1312 29.5304 14.9772 23.5104 12.2716 28.1892C9.566 32.868 24.3088 46.4608 45.2036 58.568C66.0984 70.6752 85.2284 76.6956 87.934 72.0164ZM14.066 29.994C13.666 29.0456 14.5104 28.8172 14.5104 28.8172C18.2488 28.1112 23.5 29.72 23.5 29.72C37.786 32.9732 63.26 48.93 63.26 48.93C82.8732 62.6544 85.8812 68.6996 86.332 70.4156C86.3778 70.5916 86.36 70.7781 86.2817 70.9423C86.2034 71.1065 86.0696 71.2377 85.904 71.3128C83.8588 72.2492 78.3812 70.854 78.3812 70.854C61.4984 66.3272 47.9964 58.0332 47.9964 58.0332C35.8648 51.49 23.8688 41.422 23.8688 41.422C14.7536 33.7472 14.0688 30.0044 14.0688 30.0044L14.066 29.994Z" fill="#799D6C"/>
<path d="M50 55.144C52.8409 55.144 55.144 52.8409 55.144 50C55.144 47.159 52.8409 44.856 50 44.856C47.159 44.856 44.856 47.159 44.856 50C44.856 52.8409 47.159 55.144 50 55.144Z" fill="#A3C896"/>
<path d="M71.0904 33.3332C72.7382 33.3332 74.074 31.9514 74.074 30.2468C74.074 28.5422 72.7382 27.1604 71.0904 27.1604C69.4426 27.1604 68.1068 28.5422 68.1068 30.2468C68.1068 31.9514 69.4426 33.3332 71.0904 33.3332Z" fill="#A3C896"/>
<path d="M22.1192 43.8272C23.767 43.8272 25.1028 42.4454 25.1028 40.7408C25.1028 39.0362 23.767 37.6544 22.1192 37.6544C20.4714 37.6544 19.1356 39.0362 19.1356 40.7408C19.1356 42.4454 20.4714 43.8272 22.1192 43.8272Z" fill="#A3C896"/>
<path d="M43.93 81.6872C45.5778 81.6872 46.9136 80.3054 46.9136 78.6008C46.9136 76.8962 45.5778 75.5144 43.93 75.5144C42.2822 75.5144 40.9464 76.8962 40.9464 78.6008C40.9464 80.3054 42.2822 81.6872 43.93 81.6872Z" fill="#A3C896"/>
</svg>
