<svg width="661" height="710" viewBox="0 0 661 710" fill="none" xmlns="http://www.w3.org/2000/svg">
<g filter="url(#filter0_d_22:3)">
<path d="M72.0186 602.088L71.1388 67.2334L533.123 68.1219C584.111 68.2199 624.836 110.616 622.884 161.567L611.067 470.038L388.331 470.038C384.1 470.038 380.056 471.78 377.149 474.854L362.694 490.136C350.252 503.29 328.905 501.845 318.349 487.135C316.061 483.947 315.943 479.688 318.049 476.378L324.143 466.803C369.211 395.986 287.56 312.94 215.99 356.802L197.133 368.359L197.431 601.778C197.445 612.974 191.223 623.247 181.294 628.421L175.981 631.189C149.235 645.126 117.285 644.74 90.8837 630.16L87.5162 628.301C77.9703 623.029 72.0366 612.993 72.0186 602.088Z" fill="#A3C896"/>
<path d="M72.0186 602.088L71.1388 67.2334L533.123 68.1219C584.111 68.2199 624.836 110.616 622.884 161.567L611.067 470.038L388.331 470.038C384.1 470.038 380.056 471.78 377.149 474.854L362.694 490.136C350.252 503.29 328.905 501.845 318.349 487.135C316.061 483.947 315.943 479.688 318.049 476.378L324.143 466.803C369.211 395.986 287.56 312.94 215.99 356.802L197.133 368.359L197.431 601.778C197.445 612.974 191.223 623.247 181.294 628.421L175.981 631.189C149.235 645.126 117.285 644.74 90.8837 630.16L87.5162 628.301C77.9703 623.029 72.0366 612.993 72.0186 602.088Z" stroke="#A3C896" stroke-width="10"/>
</g>
<g filter="url(#filter1_f_22:3)">
<path d="M184.545 190.254L184.452 142.535C184.448 140.545 186.063 138.93 188.053 138.934C190.033 138.938 191.637 140.541 191.641 142.521L191.734 190.268L191.792 220.294C191.796 222.285 190.182 223.9 188.191 223.896C186.211 223.892 184.608 222.288 184.604 220.309L184.545 190.254Z" fill="#A3C896"/>
<path d="M267.608 190.414L267.515 142.695C267.511 140.704 269.125 139.09 271.116 139.094C273.095 139.097 274.699 140.701 274.703 142.681L274.796 190.428L274.855 220.454C274.859 222.445 273.244 224.059 271.254 224.056C269.274 224.052 267.67 222.448 267.666 220.468L267.608 190.414Z" fill="#A3C896"/>
<path d="M184.545 190.254L184.452 142.535C184.448 140.545 186.063 138.93 188.053 138.934C190.033 138.938 191.637 140.541 191.641 142.521L191.734 190.268L191.792 220.294C191.796 222.285 190.182 223.9 188.191 223.896C186.211 223.892 184.608 222.288 184.604 220.309L184.545 190.254Z" stroke="#191919" stroke-width="10"/>
<path d="M267.608 190.414L267.515 142.695C267.511 140.704 269.125 139.09 271.116 139.094C273.095 139.097 274.699 140.701 274.703 142.681L274.796 190.428L274.855 220.454C274.859 222.445 273.244 224.059 271.254 224.056C269.274 224.052 267.67 222.448 267.666 220.468L267.608 190.414Z" stroke="#191919" stroke-width="10"/>
</g>
<defs>
<filter id="filter0_d_22:3" x="66.1306" y="62.2238" width="573.821" height="596.151" filterUnits="userSpaceOnUse" color-interpolation-filters="sRGB">
<feFlood flood-opacity="0" result="BackgroundImageFix"/>
<feColorMatrix in="SourceAlpha" type="matrix" values="0 0 0 0 0 0 0 0 0 0 0 0 0 0 0 0 0 0 127 0" result="hardAlpha"/>
<feOffset dx="10" dy="10"/>
<feGaussianBlur stdDeviation="1"/>
<feComposite in2="hardAlpha" operator="out"/>
<feColorMatrix type="matrix" values="0 0 0 0 0.474063 0 0 0 0 0.616667 0 0 0 0 0.423958 0 0 0 1 0"/>
<feBlend mode="normal" in2="BackgroundImageFix" result="effect1_dropShadow_22:3"/>
<feBlend mode="normal" in="SourceGraphic" in2="effect1_dropShadow_22:3" result="shape"/>
</filter>
<filter id="filter1_f_22:3" x="177.452" y="131.934" width="104.403" height="99.1217" filterUnits="userSpaceOnUse" color-interpolation-filters="sRGB">
<feFlood flood-opacity="0" result="BackgroundImageFix"/>
<feBlend mode="normal" in="SourceGraphic" in2="BackgroundImageFix" result="shape"/>
<feGaussianBlur stdDeviation="1" result="effect1_foregroundBlur_22:3"/>
</filter>
</defs>
</svg>
