<svg width="34" height="37" viewBox="0 0 34 37" fill="none" xmlns="http://www.w3.org/2000/svg">
<path d="M31.7254 7.09589C33.2421 8.91589 33.9988 11.0392 33.9988 13.4659C33.9988 22.2609 28.9954 24.8392 24.2938 25.5976C24.9004 26.6592 25.0521 27.8726 25.0521 29.0859V35.3026C25.0521 36.0609 24.5971 36.5159 23.9904 36.5159C23.8305 36.5181 23.6717 36.4883 23.5235 36.4281C23.3753 36.3679 23.2406 36.2786 23.1275 36.1655C23.0144 36.0524 22.9251 35.9177 22.8649 35.7695C22.8047 35.6213 22.7749 35.4625 22.7771 35.3026V29.0859C22.857 28.4503 22.7891 27.8048 22.5786 27.1998C22.3682 26.5947 22.0209 26.0464 21.5638 25.5976L22.3221 23.6259C27.0238 23.0192 31.8771 21.5026 31.8771 13.3142C31.8771 11.3426 31.1188 9.52256 29.7538 8.00589L29.4504 6.79422C30.0272 5.34097 30.0802 3.73231 29.6004 2.24422C28.8438 2.39422 27.3271 2.69922 24.7504 4.51922L23.8388 4.66922C20.2567 3.75966 16.5042 3.75966 12.9221 4.66922L12.0104 4.51922C9.28378 2.85089 7.76711 2.39589 7.00711 2.39589C6.55211 3.91256 6.55211 5.57922 7.15711 6.94589L6.85544 8.15756C5.33878 9.67422 4.58044 11.6459 4.58044 13.4659C4.58044 21.5026 9.13044 23.1709 14.1338 23.7776L14.7404 25.7492C13.8304 26.6592 13.3754 27.8726 13.5271 29.0859V35.4542C13.5294 35.6142 13.4995 35.773 13.4393 35.9212C13.3791 36.0694 13.2899 36.2041 13.1767 36.3172C13.0636 36.4303 12.929 36.5196 12.7807 36.5798C12.6325 36.6399 12.4737 36.6698 12.3138 36.6676C12.1538 36.6698 11.995 36.6399 11.8468 36.5798C11.6986 36.5196 11.5639 36.4303 11.4508 36.3172C11.3377 36.2041 11.2484 36.0694 11.1882 35.9212C11.1281 35.773 11.0982 35.6142 11.1004 35.4542V31.9676C6.09711 33.0292 4.12544 30.4509 2.60878 28.4809C1.85044 27.5709 1.24378 26.8126 0.485442 26.6609C0.335442 26.5092 -0.121225 25.9026 0.0304416 25.2959C0.182108 24.6892 0.788775 24.2342 1.39711 24.5376C2.91378 24.8409 3.82211 26.0542 4.73044 27.1159C6.09711 28.9359 7.46211 30.6026 11.5554 29.6942V29.0876C11.4054 27.8742 11.7071 26.6609 12.3138 25.5992C7.76378 24.6892 2.45711 22.1109 2.45711 13.4676C2.45711 11.0409 3.21544 8.91756 4.73211 7.09756C4.27711 4.97589 4.42878 2.70089 5.18711 0.880891L5.94544 0.274224C6.24878 0.122558 8.37211 -0.332442 12.7671 2.39589C16.401 1.48601 20.2032 1.48601 23.8371 2.39589C28.0854 -0.485775 30.3604 -0.0324423 30.6638 0.120891L31.4221 0.727558C32.1804 2.85089 32.3321 4.97422 31.7254 7.09589V7.09589Z" fill="#A3C896"/>
</svg>
