<svg width="36" height="34" viewBox="0 0 36 34" fill="none" xmlns="http://www.w3.org/2000/svg">
<path d="M24.3333 11C26.9855 11 29.529 12.0536 31.4044 13.9289C33.2798 15.8043 34.3333 18.3478 34.3333 21V32.6667H27.6667V21C27.6667 20.1159 27.3155 19.2681 26.6904 18.643C26.0652 18.0179 25.2174 17.6667 24.3333 17.6667C23.4493 17.6667 22.6014 18.0179 21.9763 18.643C21.3512 19.2681 21 20.1159 21 21V32.6667H14.3333V21C14.3333 18.3478 15.3869 15.8043 17.2623 13.9289C19.1376 12.0536 21.6812 11 24.3333 11V11Z" stroke="#A3C896" stroke-width="2" stroke-linecap="round" stroke-linejoin="round"/>
<path d="M1 12.6667H7.66667V32.6667H1V12.6667Z" stroke="#A3C896" stroke-width="2" stroke-linecap="round" stroke-linejoin="round"/>
<path d="M4.33333 7.66667C6.17428 7.66667 7.66667 6.17428 7.66667 4.33333C7.66667 2.49238 6.17428 1 4.33333 1C2.49238 1 1 2.49238 1 4.33333C1 6.17428 2.49238 7.66667 4.33333 7.66667Z" stroke="#A3C896" stroke-width="2" stroke-linecap="round" stroke-linejoin="round"/>
</svg>
