<svg width="39" height="32" viewBox="0 0 39 32" fill="none" xmlns="http://www.w3.org/2000/svg">
<path d="M37.6667 1.01676C37.6667 1.01676 34.3033 3.00343 32.4333 3.56676C31.4296 2.41261 30.0956 1.59458 28.6117 1.2233C27.1279 0.852027 25.5658 0.945419 24.1368 1.49085C22.7078 2.03628 21.4807 3.00743 20.6216 4.27295C19.7625 5.53848 19.3128 7.03732 19.3333 8.56676V10.2334C16.4044 10.3094 13.5021 9.65978 10.885 8.3425C8.26791 7.02522 6.01719 5.08115 4.33333 2.68343C4.33333 2.68343 -2.33333 17.6834 12.6667 24.3501C9.23421 26.68 5.14526 27.8483 1 27.6834C16 36.0168 34.3333 27.6834 34.3333 8.51676C34.3333 8.05343 34.2867 7.59009 34.2 7.13343C35.9 5.45676 37.6667 1.01676 37.6667 1.01676Z" stroke="#A3C896" stroke-width="1.5" stroke-linecap="round" stroke-linejoin="round"/>
</svg>
